# This file uses centimeters as units for non-parametric coordinates.

mtllib Beard05.mtl
g default
v 3.959023 162.764709 10.148252
v 4.361425 162.917267 9.763988
v 3.996053 163.110107 10.206546
v 3.619397 163.014099 10.588779
v 3.268149 162.945953 10.840760
v 3.534806 162.692398 10.500994
v 3.535779 163.394287 10.679741
v 3.214678 163.350311 10.972851
v 2.955255 163.292053 11.177464
v 2.941653 163.630997 11.164737
v 3.190897 163.661194 10.924059
v 2.750910 163.586273 11.310356
v -3.959023 162.764709 10.148252
v -3.619397 163.014099 10.588779
v -3.996053 163.110107 10.206546
v -4.361425 162.917267 9.763988
v -3.534806 162.692398 10.500994
v -3.268149 162.945953 10.840760
v -3.214678 163.350311 10.972851
v -3.535779 163.394287 10.679741
v -2.955255 163.292053 11.177464
v -2.941653 163.630997 11.164737
v -3.190897 163.661194 10.924059
v -2.750910 163.586273 11.310356
v 2.081572 163.348526 12.021115
v 2.437827 163.377686 11.820579
v 1.959784 163.739777 11.903806
v 1.678900 163.733719 12.050137
v 1.179421 164.581070 11.859827
v 1.428704 164.075043 12.016660
v 1.669346 164.065704 11.880598
v 1.408939 164.557190 11.735163
v 2.794082 163.406860 11.582412
v 2.240668 163.745850 11.743871
v 1.909988 164.056381 11.741287
v 1.638457 164.533295 11.647361
v -2.081572 163.348526 12.021115
v -1.678900 163.733719 12.050137
v -1.959784 163.739777 11.903806
v -2.437827 163.377686 11.820579
v -1.179421 164.581070 11.859827
v -1.408939 164.557190 11.735163
v -1.669346 164.065704 11.880598
v -1.428704 164.075043 12.016660
v -2.240668 163.745850 11.743871
v -2.794082 163.406860 11.582412
v -1.909988 164.056381 11.741287
v -1.638457 164.533295 11.647361
v 1.508633 163.445831 12.228160
v 1.853361 163.397186 12.091413
v 1.429431 163.805115 12.110484
v 1.180569 163.825806 12.228456
v 0.879397 164.546768 12.153600
v 0.967304 164.219406 12.212064
v 1.173820 164.223129 12.057448
v 1.061181 164.563919 12.000334
v 2.198090 163.348526 11.939067
v 1.678293 163.784439 11.992771
v 1.380335 164.226852 11.922009
v 1.242993 164.581070 11.857918
v -1.508633 163.445831 12.228160
v -1.180569 163.825806 12.228456
v -1.429431 163.805115 12.110484
v -1.853361 163.397186 12.091413
v -0.879397 164.546768 12.153600
v -1.061181 164.563919 12.000334
v -1.173820 164.223129 12.057448
v -0.967304 164.219406 12.212064
v -1.678293 163.784439 11.992771
v -2.198090 163.348526 11.939067
v -1.380335 164.226852 11.922009
v -1.242993 164.581070 11.857918
v 3.308515 162.849670 10.863451
v 3.687429 162.921341 10.467357
v 3.396914 163.336487 10.802542
v 3.078525 163.245453 11.120836
v 2.461697 164.050781 11.386898
v 2.779346 163.665054 11.309883
v 3.053149 163.766602 11.035936
v 2.707034 164.151535 11.150514
v 4.066344 162.993011 10.071262
v 3.715304 163.427505 10.484246
v 3.326953 163.868134 10.761991
v 2.952370 164.252289 10.904790
v -3.308515 162.849670 10.863451
v -3.078525 163.245453 11.120836
v -3.396914 163.336487 10.802542
v -3.687429 162.921341 10.467357
v -2.461697 164.050781 11.386898
v -2.707034 164.151535 11.150514
v -3.053149 163.766602 11.035936
v -2.779346 163.665054 11.309883
v -3.715304 163.427505 10.484246
v -4.066344 162.993011 10.071262
v -3.326953 163.868134 10.761991
v -2.952370 164.252289 10.904790
v 2.940541 162.664978 11.531569
v 3.232317 162.757324 11.240295
v 2.769558 163.199524 11.539781
v 2.508507 163.111740 11.764046
v 2.091322 163.948975 11.745312
v 2.246274 163.541870 11.817651
v 2.497944 163.612335 11.640113
v 2.315809 163.999878 11.593750
v 3.524093 162.849670 10.863451
v 3.016703 163.247131 11.157732
v 2.694201 163.647903 11.330842
v 2.516587 164.050781 11.349674
v -2.940541 162.664978 11.531569
v -2.508507 163.111740 11.764046
v -2.769558 163.199524 11.539781
v -3.232317 162.757324 11.240295
v -2.091322 163.948975 11.745312
v -2.315809 163.999878 11.593750
v -2.497944 163.612335 11.640113
v -2.246274 163.541870 11.817651
v -3.016703 163.247131 11.157732
v -3.524093 162.849670 10.863451
v -2.694201 163.647903 11.330842
v -2.516587 164.050781 11.349674
v 2.487064 163.072159 11.856410
v 2.876923 163.089233 11.520184
v 2.344102 163.539429 11.691813
v 2.049720 163.545456 11.899857
v 1.562519 164.532440 11.685925
v 1.737440 164.020828 11.842657
v 2.007914 164.007523 11.686777
v 1.764726 164.528442 11.573229
v 3.266781 163.106323 11.169842
v 2.638485 163.533417 11.454186
v 2.278387 163.994171 11.518760
v 1.966933 164.524429 11.454922
v -2.487064 163.072159 11.856410
v -2.049720 163.545456 11.899857
v -2.344102 163.539429 11.691813
v -2.876923 163.089233 11.520184
v -1.562519 164.532440 11.685925
v -1.764726 164.528442 11.573229
v -2.007914 164.007523 11.686777
v -1.737440 164.020828 11.842657
v -2.638485 163.533417 11.454186
v -3.266781 163.106323 11.169842
v -2.278387 163.994171 11.518760
v -1.966933 164.524429 11.454922
v 1.167355 163.362411 12.446257
v 1.489445 163.366333 12.284039
v 1.222589 163.799744 12.188947
v 0.945975 163.823059 12.343783
v 0.734588 164.771896 12.080687
v 0.796779 164.322662 12.274418
v 1.017107 164.279068 12.104433
v 0.933649 164.723358 11.933590
v 1.811535 163.370270 12.122475
v 1.499202 163.776428 12.057648
v 1.237689 164.235474 11.941341
v 1.133704 164.674835 11.779140
v -1.167355 163.362411 12.446257
v -0.945975 163.823059 12.343783
v -1.222589 163.799744 12.188947
v -1.489445 163.366333 12.284039
v -0.734588 164.771896 12.080687
v -0.933649 164.723358 11.933590
v -1.017107 164.279068 12.104433
v -0.796779 164.322662 12.274418
v -1.499202 163.776428 12.057648
v -1.811535 163.370270 12.122475
v -1.237689 164.235474 11.941341
v -1.133704 164.674835 11.779140
v 0.746181 163.509308 12.419648
v 0.647465 163.838394 12.347511
v 0.408332 163.842621 12.347818
v 0.486696 163.524094 12.409205
v 0.343603 164.223969 12.317176
v 0.555999 164.231110 12.318948
v 0.510285 164.568420 12.195930
v 0.321670 164.552856 12.208450
v 0.887842 163.834167 12.340782
v 1.009142 163.494507 12.412822
v 0.769261 164.238266 12.305150
v 0.698318 164.583954 12.177161
v -0.746181 163.509308 12.419648
v -0.486696 163.524094 12.409205
v -0.408332 163.842621 12.347818
v -0.647465 163.838394 12.347511
v -0.343603 164.223969 12.317176
v -0.321670 164.552856 12.208450
v -0.510285 164.568420 12.195930
v -0.555999 164.231110 12.318948
v -0.887842 163.834167 12.340782
v -1.009142 163.494507 12.412822
v -0.769261 164.238266 12.305150
v -0.698318 164.583954 12.177161
v 3.240576 162.880173 11.432427
v 3.584693 162.960083 11.036154
v 2.934628 163.378632 11.342423
v 2.689364 163.290115 11.650364
v 2.034685 164.298279 11.668056
v 2.289026 163.788147 11.736698
v 2.493926 163.856613 11.489671
v 2.247838 164.318878 11.478233
v 3.928809 163.039993 10.639880
v 3.179890 163.467163 11.003469
v 2.698826 163.925079 11.202150
v 2.460993 164.339493 11.273655
v -3.240576 162.880173 11.432427
v -2.689364 163.290115 11.650364
v -2.934628 163.378632 11.342423
v -3.584693 162.960083 11.036154
v -2.034685 164.298279 11.668056
v -2.247838 164.318878 11.478233
v -2.493926 163.856613 11.489671
v -2.289026 163.788147 11.736698
v -3.179890 163.467163 11.003469
v -3.928809 163.039993 10.639880
v -2.698826 163.925079 11.202150
v -2.460993 164.339493 11.273655
v 1.845362 163.139877 12.369810
v 2.139964 163.143799 12.217272
v 1.776470 163.537720 12.136782
v 1.508038 163.561035 12.258224
v 1.189394 164.344666 11.948378
v 1.297423 163.992676 12.130977
v 1.532618 163.949081 12.034702
v 1.413880 164.296143 11.835558
v 2.434566 163.147736 12.021707
v 2.044901 163.514404 12.006056
v 1.767814 163.905487 11.924504
v 1.638367 164.247604 11.737716
v -1.845362 163.139877 12.369810
v -1.508038 163.561035 12.258224
v -1.776470 163.537720 12.136782
v -2.139964 163.143799 12.217272
v -1.189394 164.344666 11.948378
v -1.413880 164.296143 11.835558
v -1.532618 163.949081 12.034702
v -1.297423 163.992676 12.130977
v -2.044901 163.514404 12.006056
v -2.434566 163.147736 12.021707
v -1.767814 163.905487 11.924504
v -1.638367 164.247604 11.737716
v 0.885348 163.562057 12.240727
v 1.552511 163.559647 12.019062
v 1.146413 164.188797 11.982106
v 0.633429 164.108658 12.248306
v 0.237854 163.595520 12.173447
v 0.139269 164.025681 12.149327
v 0.515211 164.566406 12.165876
v 0.937310 164.676117 11.887469
v 0.172026 164.402481 12.149095
v -0.885348 163.562057 12.240727
v -0.633429 164.108658 12.248306
v -1.146413 164.188797 11.982106
v -1.552511 163.559647 12.019062
v -0.237854 163.595520 12.173447
v -0.139269 164.025681 12.149327
v -0.515211 164.566406 12.165876
v -0.937310 164.676117 11.887469
v -0.172026 164.402481 12.149095
v 4.081998 162.932571 9.862850
v 5.028392 163.186920 9.084300
v 4.168853 163.442810 9.838607
v 3.423697 163.336578 10.503403
v 3.345442 162.739212 10.412108
v 2.733511 163.212830 11.068393
v 2.901467 163.828308 10.978108
v 3.543872 163.803009 10.440994
v 2.242026 163.757294 11.473083
v -4.081998 162.932571 9.862850
v -3.423697 163.336578 10.503403
v -4.168853 163.442810 9.838607
v -5.028392 163.186920 9.084300
v -3.345442 162.739212 10.412108
v -2.733511 163.212830 11.068393
v -2.901467 163.828308 10.978108
v -3.543872 163.803009 10.440994
v -2.242026 163.757294 11.473083
v 3.959023 162.834625 10.049604
v 5.058780 163.139725 9.154924
v 4.092668 163.379944 9.987653
v 3.194812 163.178833 10.795922
v 3.041990 162.644180 10.700599
v 2.388894 163.105820 11.370318
v 2.658834 163.630997 11.228604
v 3.403416 163.691391 10.545165
v 1.904042 163.556442 11.674190
v -3.959023 162.834625 10.049604
v -3.194812 163.178833 10.795922
v -4.092668 163.379944 9.987653
v -5.058780 163.139725 9.154924
v -3.041990 162.644180 10.700599
v -2.388894 163.105820 11.370318
v -2.658834 163.630997 11.228604
v -3.403416 163.691391 10.545165
v -1.904042 163.556442 11.674190
v 1.946953 163.396515 11.670120
v 2.775682 163.607574 11.113005
v 2.143198 164.099777 11.475547
v 1.410436 164.023102 11.864690
v 1.266353 163.328903 12.127163
v 0.747508 163.963669 12.183823
v 1.050830 164.667572 11.881008
v 1.655768 164.597565 11.622410
v 0.489583 164.592346 12.093054
v -1.946953 163.396515 11.670120
v -1.410436 164.023102 11.864690
v -2.143198 164.099777 11.475547
v -2.775682 163.607574 11.113005
v -1.266353 163.328903 12.127163
v -0.747508 163.963669 12.183823
v -1.050830 164.667572 11.881008
v -1.655768 164.597565 11.622410
v -0.489583 164.592346 12.093054
v 2.277498 163.088181 11.488901
v 2.929120 162.938095 10.953101
v 2.445090 163.672775 11.348409
v 1.799096 163.753799 11.758008
v 1.655014 163.059601 11.864170
v 1.220091 163.713165 12.070446
v 1.439490 164.398270 11.693937
v 2.044428 164.328262 11.501274
v 0.994247 164.475540 11.878408
v -2.277498 163.088181 11.488901
v -1.799096 163.753799 11.758008
v -2.445090 163.672775 11.348409
v -2.929120 162.938095 10.953101
v -1.655014 163.059601 11.864170
v -1.220091 163.713165 12.070446
v -1.439490 164.398270 11.693937
v -2.044428 164.328262 11.501274
v -0.994247 164.475540 11.878408
v 0.689817 163.467911 12.333499
v 1.354882 163.465500 12.121696
v 1.072064 164.114594 12.028018
v 0.560331 164.075165 12.290709
v 0.116187 163.521317 12.205539
v 0.036144 164.044373 12.132860
v 0.498449 164.560104 12.152125
v 0.909394 164.601913 11.932191
v 0.079772 164.461716 12.110799
v -0.689817 163.467911 12.333499
v -0.560331 164.075165 12.290709
v -1.072064 164.114594 12.028018
v -1.354882 163.465500 12.121696
v -0.116187 163.521317 12.205539
v -0.036144 164.044373 12.132860
v -0.498449 164.560104 12.152125
v -0.909394 164.601913 11.932191
v -0.079772 164.461716 12.110799
v 1.833835 163.120239 11.844949
v 2.472198 162.987549 11.442127
v 1.994040 163.746002 11.661974
v 1.455514 163.788925 11.982086
v 1.236473 163.298935 12.112006
v 0.924780 163.763626 12.188729
v 1.181434 164.418716 11.849034
v 1.650153 164.257080 11.649720
v 0.733354 164.444107 12.069812
v -1.833835 163.120239 11.844949
v -1.455514 163.788925 11.982086
v -1.994040 163.746002 11.661974
v -2.472198 162.987549 11.442127
v -1.236473 163.298935 12.112006
v -0.924780 163.763626 12.188729
v -1.181434 164.418716 11.849034
v -1.650153 164.257080 11.649720
v -0.733354 164.444107 12.069812
v 2.792151 162.857086 11.082850
v 3.383471 163.070892 10.482873
v 2.825274 163.523178 11.075060
v 2.375264 163.400360 11.522563
v 2.205686 162.902878 11.613849
v 1.793691 163.323898 11.848137
v 1.914776 164.093826 11.614908
v 2.409230 164.022964 11.328592
v 1.477561 164.041473 11.835170
v -2.792151 162.857086 11.082850
v -2.375264 163.400360 11.522563
v -2.825274 163.523178 11.075060
v -3.383471 163.070892 10.482873
v -2.205686 162.902878 11.613849
v -1.793691 163.323898 11.848137
v -1.914776 164.093826 11.614908
v -2.409230 164.022964 11.328592
v -1.477561 164.041473 11.835170
v 3.225236 162.783554 10.804178
v 4.171528 163.060913 10.011990
v 3.475446 163.485306 10.541486
v 2.857777 163.380814 11.206602
v 2.323454 162.664978 11.468848
v 2.048493 163.360550 11.723926
v 2.434479 163.951065 11.329288
v 3.003780 163.843842 10.835931
v 1.840198 163.948975 11.691038
v -3.225236 162.783554 10.804178
v -2.857777 163.380814 11.206602
v -3.475446 163.485306 10.541486
v -4.171528 163.060913 10.011990
v -2.323454 162.664978 11.468848
v -2.048493 163.360550 11.723926
v -2.434479 163.951065 11.329288
v -3.003780 163.843842 10.835931
v -1.840198 163.948975 11.691038
v 2.798848 163.001633 11.235567
v 4.029529 163.262909 10.139062
v 3.063329 163.754517 10.890825
v 2.299409 163.645706 11.589786
v 1.879351 162.883057 11.846699
v 1.496483 163.636368 11.992963
v 1.910377 164.239716 11.613916
v 2.591663 164.113052 11.184464
v 1.247977 164.252655 11.901843
v -2.798848 163.001633 11.235567
v -2.299409 163.645706 11.589786
v -3.063329 163.754517 10.890825
v -4.029529 163.262909 10.139062
v -1.879351 162.883057 11.846699
v -1.496483 163.636368 11.992963
v -1.910377 164.239716 11.613916
v -2.591663 164.113052 11.184464
v -1.247977 164.252655 11.901843
v 2.863867 163.123138 11.192533
v 3.659919 163.266342 10.455355
v 3.145111 163.712830 10.853490
v 2.505885 163.713455 11.479484
v 2.098876 163.212280 11.683820
v 1.760990 163.751785 11.813721
v 2.019048 164.408630 11.495192
v 2.698855 164.162659 11.096508
v 1.492130 164.375031 11.667390
v -2.863867 163.123138 11.192533
v -2.505885 163.713455 11.479484
v -3.145111 163.712830 10.853490
v -3.659919 163.266342 10.455355
v -2.098876 163.212280 11.683820
v -1.760990 163.751785 11.813721
v -2.019048 164.408630 11.495192
v -2.698855 164.162659 11.096508
v -1.492130 164.375031 11.667390
v 1.940650 163.011703 11.912662
v 2.795052 163.099823 11.284452
v 2.245656 163.804749 11.598504
v 1.484061 163.836700 11.987690
v 1.157616 163.349243 12.178675
v 0.934640 163.831253 12.170310
v 1.110945 164.549973 11.818018
v 1.900920 164.379074 11.571486
v 0.578849 164.503326 12.128245
v -1.940650 163.011703 11.912662
v -1.484061 163.836700 11.987690
v -2.245656 163.804749 11.598504
v -2.795052 163.099823 11.284452
v -1.157616 163.349243 12.178675
v -0.934640 163.831253 12.170310
v -1.110945 164.549973 11.818018
v -1.900920 164.379074 11.571486
v -0.578849 164.503326 12.128245
v 0.931844 163.263687 12.351100
v 1.683569 163.168671 11.987013
v 1.455925 164.050323 11.948808
v 0.804397 163.970596 12.317201
v 0.152179 163.372116 12.300148
v 0.087106 163.913696 12.252670
v 0.618104 164.711136 12.061585
v 1.236156 164.711151 11.711404
v 0.089804 164.380722 12.145515
v -0.931844 163.263687 12.351100
v -0.804397 163.970596 12.317201
v -1.455925 164.050323 11.948808
v -1.683569 163.168671 11.987013
v -0.152179 163.372116 12.300148
v -0.087106 163.913696 12.252670
v -0.618104 164.711136 12.061585
v -1.236156 164.711151 11.711404
v -0.089804 164.380722 12.145515
v 3.303420 163.106323 10.978070
v 4.187214 163.195679 9.982902
v 3.389229 163.692322 10.620980
v 2.614019 163.748505 11.428433
v 2.201609 163.072159 11.775245
v 1.847543 163.783813 11.864947
v 2.147197 164.447037 11.424204
v 2.832356 164.199844 10.962245
v 1.558126 164.532440 11.631853
v -3.303420 163.106323 10.978070
v -2.614019 163.748505 11.428433
v -3.389229 163.692322 10.620980
v -4.187214 163.195679 9.982902
v -2.201609 163.072159 11.775245
v -1.847543 163.783813 11.864947
v -2.147197 164.447037 11.424204
v -2.832356 164.199844 10.962245
v -1.558126 164.532440 11.631853
v 1.995674 163.126373 11.900172
v 2.686450 163.321884 11.426424
v 2.110052 163.777802 11.725426
v 1.496561 163.706787 12.048318
v 1.381641 163.063751 12.201447
v 0.902620 163.651733 12.232588
v 1.111591 164.303757 11.900192
v 1.664394 164.238907 11.663923
v 0.594928 164.234070 12.211221
v -1.995674 163.126373 11.900172
v -1.496561 163.706787 12.048318
v -2.110052 163.777802 11.725426
v -2.686450 163.321884 11.426424
v -1.381641 163.063751 12.201447
v -0.902620 163.651733 12.232588
v -1.111591 164.303757 11.900192
v -1.664394 164.238907 11.663923
v -0.594928 164.234070 12.211221
v 1.601274 163.789703 11.999605
v 2.187945 163.834915 11.651064
v 1.782870 164.269928 11.677526
v 1.274576 164.255692 11.954208
v 1.039750 163.859421 12.125574
v 0.791278 164.185272 12.215720
v 0.990980 164.649139 11.875628
v 1.487834 164.617203 11.599442
v 0.628060 164.565536 12.096517
v -1.601274 163.789703 11.999605
v -1.274576 164.255692 11.954208
v -1.782870 164.269928 11.677526
v -2.187945 163.834915 11.651064
v -1.039750 163.859421 12.125574
v -0.791278 164.185272 12.215720
v -0.990980 164.649139 11.875628
v -1.487834 164.617203 11.599442
v -0.628060 164.565536 12.096517
v 2.170872 163.348526 11.880430
v 2.931373 163.406860 11.321412
v 2.154187 164.056381 11.614599
v 1.566909 164.075043 11.931261
v 1.375852 163.445831 12.147144
v 1.005018 164.079102 12.173948
v 1.152203 164.581070 11.804467
v 1.639355 164.533295 11.594120
v 0.789208 164.546768 12.102801
v -2.170872 163.348526 11.880430
v -1.566909 164.075043 11.931261
v -2.154187 164.056381 11.614599
v -2.931373 163.406860 11.321412
v -1.375852 163.445831 12.147144
v -1.005018 164.079102 12.173948
v -1.152203 164.581070 11.804467
v -1.639355 164.533295 11.594120
v -0.789208 164.546768 12.102801
v 0.981924 163.362411 12.356135
v 1.768687 163.370270 12.060840
v 1.442686 164.047180 11.983505
v 0.778403 164.130142 12.300374
v 0.203697 163.391983 12.334759
v 0.097741 164.058929 12.246664
v 0.636574 164.771896 12.048035
v 1.200288 164.674835 11.720794
v 0.182289 164.600891 12.133003
v -0.981924 163.362411 12.356135
v -0.778403 164.130142 12.300374
v -1.442686 164.047180 11.983505
v -1.768687 163.370270 12.060840
v -0.203697 163.391983 12.334759
v -0.097741 164.058929 12.246664
v -0.636574 164.771896 12.048035
v -1.200288 164.674835 11.720794
v -0.182289 164.600891 12.133003
v 1.899059 163.384308 12.050840
v 2.675143 163.451874 11.510183
v 2.074493 164.026093 11.721110
v 1.446907 164.030075 12.039816
v 1.075263 163.407700 12.349804
v 0.765071 164.069672 12.319329
v 1.049510 164.612350 11.904558
v 1.614029 164.516769 11.674309
v 0.577840 164.560135 12.148168
v -1.899059 163.384308 12.050840
v -1.446907 164.030075 12.039816
v -2.074493 164.026093 11.721110
v -2.675143 163.451874 11.510183
v -1.075263 163.407700 12.349804
v -0.765071 164.069672 12.319329
v -1.049510 164.612350 11.904558
v -1.614029 164.516769 11.674309
v -0.577840 164.560135 12.148168
v 0.756936 163.380249 12.395750
v 1.420248 163.353485 12.140679
v 1.026400 164.044098 12.075150
v 0.504913 164.058884 12.277250
v 0.130566 163.575928 12.197388
v -0.003672 163.987701 12.089406
v 0.418939 164.542191 12.182969
v 0.847076 164.521072 12.045554
v -0.028952 164.428299 12.061616
v -0.756936 163.380249 12.395750
v -0.504913 164.058884 12.277250
v -1.026400 164.044098 12.075150
v -1.420248 163.353485 12.140679
v -0.130566 163.575928 12.197388
v 0.002362 163.987701 12.089177
v -0.418939 164.542191 12.182969
v -0.847076 164.521072 12.045554
v 0.028952 164.428299 12.061616
v 3.701870 162.930649 10.365258
v 4.801627 163.271713 9.446460
v 3.835515 163.458527 10.259622
v 2.946595 163.339279 11.069070
v 2.784838 162.815430 11.060165
v 2.131742 163.277069 11.622843
v 2.401681 163.872192 11.346419
v 3.146263 163.825684 10.785663
v 1.774614 163.829834 11.744864
v -3.701870 162.930649 10.365258
v -2.946595 163.339279 11.069070
v -3.835515 163.458527 10.259622
v -4.801627 163.271713 9.446460
v -2.784838 162.815430 11.060165
v -2.131742 163.277069 11.622843
v -2.401681 163.872192 11.346419
v -3.146263 163.825684 10.785663
v -1.774614 163.829834 11.744864
v 2.080795 162.926620 11.647718
v 2.677241 162.853241 11.079590
v 2.177381 163.566406 11.530570
v 1.674029 163.559647 11.878974
v 1.510999 163.050980 12.044671
v 1.177289 163.487503 12.111033
v 1.399527 164.229889 11.775225
v 1.853652 164.109985 11.603340
v 0.900056 164.216797 12.067386
v -2.080795 162.926620 11.647718
v -1.674029 163.559647 11.878974
v -2.177381 163.566406 11.530570
v -2.677241 162.853241 11.079590
v -1.510999 163.050980 12.044671
v -1.177289 163.487503 12.111033
v -1.399527 164.229889 11.775225
v -1.853652 164.109985 11.603340
v -0.900056 164.216797 12.067386
v 2.667204 162.788849 11.450206
v 3.466151 162.844849 10.704503
v 3.078343 163.548508 11.017107
v 2.324268 163.761368 11.614558
v 1.917885 162.911224 11.911986
v 1.548539 163.835999 11.976501
v 1.856789 164.532349 11.517180
v 2.595563 164.197037 11.195321
v 1.143897 164.599457 11.778792
v -2.667204 162.788849 11.450206
v -2.324268 163.761368 11.614558
v -3.078343 163.548508 11.017107
v -3.466151 162.844849 10.704503
v -1.917885 162.911224 11.911986
v -1.548539 163.835999 11.976501
v -1.856789 164.532349 11.517180
v -2.595563 164.197037 11.195321
v -1.143897 164.599457 11.778792
v 1.781855 163.743835 11.976606
v 2.542863 163.763412 11.549479
v 2.102392 164.274765 11.560102
v 1.472236 164.316040 11.851692
v 1.025851 163.745163 12.239327
v 0.859246 164.278336 12.201973
v 1.170328 164.787598 11.740679
v 1.780925 164.667130 11.501455
v 0.722649 164.674561 12.044443
v -1.781855 163.743835 11.976606
v -1.472236 164.316040 11.851692
v -2.102392 164.274765 11.560102
v -2.542863 163.763412 11.549479
v -1.025851 163.745163 12.239327
v -0.859246 164.278336 12.201973
v -1.170328 164.787598 11.740679
v -1.780925 164.667130 11.501455
v -0.722649 164.674561 12.044443
vt 0.147461 0.765381
vt 0.075500 0.765381
vt 0.075500 0.901917
vt 0.003515 0.765381
vt 0.147461 0.765381
vt 0.147461 0.830811
vt 0.075500 0.829468
vt 0.003515 0.765381
vt 0.069885 0.982147
vt 0.003515 0.830811
vt 0.147461 0.829468
vt 0.075500 0.829468
vt 0.075500 0.826660
vt 0.003515 0.830811
vt 0.003515 0.829468
vt 0.003515 0.982147
vt 0.075500 0.831055
vt 0.147461 0.982147
vt 0.003515 0.765381
vt 0.003515 0.982147
vt 0.003515 0.906799
vt 0.147461 0.901917
vt 0.147461 0.982147
vt 0.075500 0.982147
vt 0.003515 0.901917
vt 0.147461 0.829468
vt 0.147461 0.982147
vt 0.011040 0.822144
vt 0.147461 0.906250
vt 0.075500 0.982147
vt 0.147461 0.829468
vt 0.075500 0.765381
vt 0.147461 0.765381
vt 0.147461 0.905090
vt 0.075500 0.867554
vt 0.075500 0.765381
vt 0.075500 0.765381
vt 0.075500 0.765381
vt 0.075500 0.902893
vt 0.003515 0.830688
vt 0.147461 0.765381
vt 0.075500 0.765381
vt 0.075500 0.829468
vt 0.129395 0.822144
vt 0.003515 0.765381
vt 0.003515 0.765381
vt 0.003515 0.982147
vt 0.069885 0.822144
vt 0.075500 0.830811
vt 0.075500 0.908875
vt 0.003515 0.765381
vt 0.011040 0.905029
vt 0.003515 0.982147
vt 0.003515 0.908875
vt 0.075500 0.982147
vt 0.147461 0.982147
vt 0.003515 0.982147
vt 0.003515 0.901917
vt 0.075500 0.982147
vt 0.147461 0.982147
vt 0.075500 0.982147
vt 0.003515 0.903870
vt 0.075500 0.765381
vt 0.069885 0.822144
vt 0.147461 0.982147
vt 0.075500 0.982147
vt 0.075500 0.905090
vt 0.075500 0.867554
vt 0.147461 0.830811
vt 0.075500 0.765381
vt 0.129395 0.905029
vt 0.075500 0.902893
vt 0.003515 0.765381
vt 0.147461 0.765381
vt 0.147461 0.833374
vt 0.075500 0.830688
vt 0.003515 0.826660
vt 0.003515 0.833374
vt 0.147461 0.830688
vt 0.075500 0.830811
vt 0.003515 0.833374
vt 0.003515 0.830688
vt 0.011040 0.905029
vt 0.003515 0.982147
vt 0.075500 0.829468
vt 0.075500 0.982147
vt 0.147461 0.867554
vt 0.003515 0.765381
vt 0.003515 0.982147
vt 0.003515 0.867554
vt 0.147461 0.902893
vt 0.147461 0.908875
vt 0.003515 0.982147
vt 0.003515 0.902893
vt 0.147461 0.830688
vt 0.147461 0.982147
vt 0.147461 0.903870
vt 0.075500 0.905090
vt 0.075500 0.765381
vt 0.147461 0.765381
vt 0.147461 0.906799
vt 0.069885 0.905029
vt 0.075500 0.906250
vt 0.075500 0.765381
vt 0.147461 0.765381
vt 0.147461 0.765381
vt 0.075500 0.765381
vt 0.075500 0.905090
vt 0.003515 0.765381
vt 0.147461 0.765381
vt 0.075500 0.828979
vt 0.075500 0.826660
vt 0.003515 0.765381
vt 0.003515 0.765381
vt 0.147461 0.826660
vt 0.075500 0.833374
vt 0.147461 0.905090
vt 0.003515 0.826660
vt 0.003515 0.982147
vt 0.003515 0.905090
vt 0.129395 0.822144
vt 0.075500 0.982147
vt 0.147461 0.908875
vt 0.003515 0.982147
vt 0.011040 0.982147
vt 0.003515 0.902893
vt 0.075500 0.982147
vt 0.147461 0.982147
vt 0.075500 0.982147
vt 0.003515 0.908875
vt 0.147461 0.826660
vt 0.147461 0.982147
vt 0.075500 0.982147
vt 0.075500 0.906250
vt 0.147461 0.833374
vt 0.147461 0.765381
vt 0.069885 0.765381
vt 0.147461 0.901917
vt 0.075500 0.905090
vt 0.003515 0.765381
vt 0.129395 0.765381
vt 0.147461 0.765381
vt 0.147461 0.765381
vt 0.069885 0.905029
vt 0.003515 0.831055
vt 0.003515 0.828979
vt 0.075500 0.765381
vt 0.075500 0.833374
vt 0.003515 0.765381
vt 0.003515 0.765381
vt 0.003515 0.982147
vt 0.075500 0.830688
vt 0.147461 0.906250
vt 0.003515 0.765381
vt 0.003515 0.982147
vt 0.011040 0.982147
vt 0.003515 0.906250
vt 0.147461 0.905090
vt 0.147461 0.982147
vt 0.147461 0.982147
vt 0.003515 0.982147
vt 0.003515 0.905090
vt 0.011040 0.822144
vt 0.147461 0.982147
vt 0.075500 0.908875
vt 0.003515 0.867554
vt 0.075500 0.765381
vt 0.147461 0.765381
vt 0.075500 0.982147
vt 0.075500 0.903870
vt 0.075500 0.765381
vt 0.147461 0.765381
vt 0.075500 0.765381
vt 0.075500 0.906799
vt 0.129395 0.905029
vt 0.003515 0.765381
vt 0.147461 0.765381
vt 0.075500 0.765381
vt 0.147461 0.826660
vt 0.075500 0.831055
vt 0.003515 0.765381
vt 0.003515 0.826660
vt 0.147461 0.831055
vt 0.147461 0.828979
vt 0.003515 0.826660
vt 0.003515 0.831055
vt 0.003515 0.982147
vt 0.075500 0.826660
vt 0.075500 0.982147
vt 0.147461 0.982147
vt 0.003515 0.982147
vt 0.003515 0.905090
vt 0.075500 0.982147
vt 0.011040 0.765381
vt 0.147461 0.982147
vt 0.147461 0.982147
vt 0.003515 0.905090
vt 0.129395 0.982147
vt 0.147461 0.831055
vt 0.147461 0.982147
vt 0.147461 0.867554
vt 0.075500 0.903870
vt 0.147461 0.765381
vt 0.147461 0.765381
vt 0.147461 0.902893
vt 0.075500 0.906799
vt 0.075500 0.765381
vt 0.147461 0.765381
vt 0.147461 0.829468
vt 0.129395 0.765381
vt 0.075500 0.901917
vt 0.003515 0.829468
vt 0.003515 0.829468
vt 0.069885 0.765381
vt 0.075500 0.765381
vt 0.147461 0.828979
vt 0.003515 0.829468
vt 0.069885 0.982147
vt 0.003515 0.765381
vt 0.003515 0.982147
vt 0.075500 0.826660
vt 0.147461 0.903870
vt 0.003515 0.828979
vt 0.003515 0.982147
vt 0.003515 0.903870
vt 0.147461 0.906799
vt 0.147461 0.982147
vt 0.003515 0.982147
vt 0.003515 0.906799
vt 0.129395 0.982147
vt 0.075500 0.982147
vt 0.147461 0.982147
vt 0.147461 0.905090
vt 0.075500 0.982147
vt 0.003515 0.906250
vt 0.075500 0.828979
vt 0.011040 0.765381
vt 0.075500 0.982147
vt 0.075500 0.982147
vt 0.147461 0.826660
vt 0.627441 0.983246
vt 0.503418 0.879333
vt 0.503418 0.983246
vt 0.627441 0.879333
vt 0.627441 0.769531
vt 0.503418 0.769531
vt 0.757324 0.983246
vt 0.757324 0.879333
vt 0.757324 0.769531
vt 0.627441 0.983246
vt 0.503418 0.983246
vt 0.503418 0.879333
vt 0.627441 0.879333
vt 0.757324 0.983246
vt 0.757324 0.879333
vt 0.757324 0.769531
vt 0.627441 0.769531
vt 0.503418 0.769531
vt 0.862793 0.726563
vt 0.751953 0.556152
vt 0.751953 0.726563
vt 0.862793 0.556152
vt 0.862793 0.404297
vt 0.751953 0.404297
vt 0.982422 0.726563
vt 0.982422 0.556152
vt 0.982422 0.404297
vt 0.862793 0.726563
vt 0.751953 0.726563
vt 0.751953 0.556152
vt 0.862793 0.556152
vt 0.982422 0.726563
vt 0.982422 0.556152
vt 0.982422 0.404297
vt 0.862793 0.404297
vt 0.751953 0.404297
vt 0.629883 0.732178
vt 0.510742 0.548828
vt 0.510742 0.732178
vt 0.629883 0.548828
vt 0.629883 0.385254
vt 0.510742 0.385254
vt 0.758301 0.732178
vt 0.758301 0.548828
vt 0.758301 0.385254
vt 0.629883 0.732178
vt 0.510742 0.732178
vt 0.510742 0.548828
vt 0.629883 0.548828
vt 0.758301 0.732178
vt 0.758301 0.548828
vt 0.758301 0.385254
vt 0.629883 0.385254
vt 0.510742 0.385254
vt 0.631836 0.725586
vt 0.516602 0.568604
vt 0.516602 0.725586
vt 0.631836 0.568604
vt 0.631836 0.396973
vt 0.516602 0.396973
vt 0.754395 0.725586
vt 0.754395 0.568604
vt 0.754395 0.396973
vt 0.631836 0.725586
vt 0.516602 0.725586
vt 0.516602 0.568604
vt 0.631836 0.568604
vt 0.754395 0.725586
vt 0.754395 0.568604
vt 0.754395 0.396973
vt 0.631836 0.396973
vt 0.516602 0.396973
vt 0.621094 0.982285
vt 0.499268 0.905640
vt 0.499268 0.982285
vt 0.621094 0.905640
vt 0.621094 0.768555
vt 0.499268 0.768555
vt 0.752930 0.982285
vt 0.752930 0.905640
vt 0.752930 0.768555
vt 0.621094 0.982285
vt 0.499268 0.982285
vt 0.499268 0.905640
vt 0.621094 0.905640
vt 0.752930 0.982285
vt 0.752930 0.905640
vt 0.752930 0.768555
vt 0.621094 0.768555
vt 0.499268 0.768555
vt 0.627441 0.983246
vt 0.503418 0.879333
vt 0.503418 0.983246
vt 0.627441 0.879333
vt 0.627441 0.769531
vt 0.503418 0.769531
vt 0.757324 0.983246
vt 0.757324 0.879333
vt 0.757324 0.769531
vt 0.627441 0.983246
vt 0.503418 0.983246
vt 0.503418 0.879333
vt 0.627441 0.879333
vt 0.757324 0.983246
vt 0.757324 0.879333
vt 0.757324 0.769531
vt 0.627441 0.769531
vt 0.503418 0.769531
vt 0.625000 0.993771
vt 0.489990 0.908875
vt 0.489990 0.993771
vt 0.625000 0.908875
vt 0.625000 0.757080
vt 0.489990 0.757080
vt 0.770996 0.993771
vt 0.770996 0.908875
vt 0.770996 0.757080
vt 0.625000 0.993771
vt 0.489990 0.993771
vt 0.489990 0.908875
vt 0.625000 0.908875
vt 0.770996 0.993771
vt 0.770996 0.908875
vt 0.770996 0.757080
vt 0.625000 0.757080
vt 0.489990 0.757080
vt 0.625977 0.984406
vt 0.508301 0.884766
vt 0.508301 0.984406
vt 0.625977 0.884766
vt 0.625977 0.763794
vt 0.508301 0.763794
vt 0.752441 0.984406
vt 0.752441 0.884766
vt 0.752441 0.763794
vt 0.625977 0.984406
vt 0.508301 0.984406
vt 0.508301 0.884766
vt 0.625977 0.884766
vt 0.752441 0.984406
vt 0.752441 0.884766
vt 0.752441 0.763794
vt 0.625977 0.763794
vt 0.508301 0.763794
vt 0.625977 0.738770
vt 0.504395 0.558594
vt 0.504395 0.738770
vt 0.625977 0.558594
vt 0.625977 0.397949
vt 0.504395 0.397949
vt 0.756348 0.738770
vt 0.756348 0.558594
vt 0.756348 0.397949
vt 0.625977 0.738770
vt 0.504395 0.738770
vt 0.504395 0.558594
vt 0.625977 0.558594
vt 0.756348 0.738770
vt 0.756348 0.558594
vt 0.756348 0.397949
vt 0.625977 0.397949
vt 0.504395 0.397949
vt 0.625977 0.738770
vt 0.504395 0.558594
vt 0.504395 0.738770
vt 0.625977 0.558594
vt 0.625977 0.397949
vt 0.504395 0.397949
vt 0.756348 0.738770
vt 0.756348 0.558594
vt 0.756348 0.397949
vt 0.625977 0.738770
vt 0.504395 0.738770
vt 0.504395 0.558594
vt 0.625977 0.558594
vt 0.756348 0.738770
vt 0.756348 0.558594
vt 0.756348 0.397949
vt 0.625977 0.397949
vt 0.504395 0.397949
vt 0.625488 0.731934
vt 0.502441 0.550293
vt 0.502441 0.731934
vt 0.625488 0.550293
vt 0.625488 0.388184
vt 0.502441 0.388184
vt 0.758301 0.731934
vt 0.758301 0.550293
vt 0.758301 0.388184
vt 0.625488 0.731934
vt 0.502441 0.731934
vt 0.502441 0.550293
vt 0.625488 0.550293
vt 0.758301 0.731934
vt 0.758301 0.550293
vt 0.758301 0.388184
vt 0.625488 0.388184
vt 0.502441 0.388184
vt 0.345459 0.731445
vt 0.473877 0.557373
vt 0.473877 0.731445
vt 0.345459 0.557373
vt 0.345459 0.402344
vt 0.473877 0.402344
vt 0.246826 0.731445
vt 0.246826 0.557373
vt 0.246826 0.402344
vt 0.345459 0.731445
vt 0.473877 0.731445
vt 0.473877 0.557373
vt 0.345459 0.557373
vt 0.246826 0.731445
vt 0.246826 0.557373
vt 0.246826 0.402344
vt 0.345459 0.402344
vt 0.473877 0.402344
vt 0.865234 0.731445
vt 0.756348 0.580811
vt 0.756348 0.731445
vt 0.865234 0.580811
vt 0.865234 0.402344
vt 0.756348 0.402344
vt 0.981934 0.731445
vt 0.981934 0.580811
vt 0.981934 0.402344
vt 0.865234 0.731445
vt 0.756348 0.731445
vt 0.756348 0.580811
vt 0.865234 0.580811
vt 0.981934 0.731445
vt 0.981934 0.580811
vt 0.981934 0.402344
vt 0.865234 0.402344
vt 0.756348 0.402344
vt 0.622070 0.979141
vt 0.502930 0.869507
vt 0.502930 0.979141
vt 0.622070 0.869507
vt 0.622070 0.771729
vt 0.502930 0.771729
vt 0.749512 0.979141
vt 0.749512 0.869507
vt 0.749512 0.771729
vt 0.622070 0.979141
vt 0.502930 0.979141
vt 0.502930 0.869507
vt 0.622070 0.869507
vt 0.749512 0.979141
vt 0.749512 0.869507
vt 0.749512 0.771729
vt 0.622070 0.771729
vt 0.502930 0.771729
vt 0.631836 0.725586
vt 0.516602 0.568604
vt 0.516602 0.725586
vt 0.631836 0.568604
vt 0.631836 0.396973
vt 0.516602 0.396973
vt 0.754395 0.725586
vt 0.754395 0.568604
vt 0.754395 0.396973
vt 0.631836 0.725586
vt 0.516602 0.725586
vt 0.516602 0.568604
vt 0.631836 0.568604
vt 0.754395 0.725586
vt 0.754395 0.568604
vt 0.754395 0.396973
vt 0.631836 0.396973
vt 0.516602 0.396973
vt 0.635254 0.993771
vt 0.770996 0.902832
vt 0.770996 0.993771
vt 0.635254 0.902832
vt 0.635254 0.757080
vt 0.770996 0.757080
vt 0.489990 0.993771
vt 0.489990 0.902832
vt 0.489990 0.757080
vt 0.635254 0.993771
vt 0.770996 0.993771
vt 0.770996 0.902832
vt 0.635254 0.902832
vt 0.489990 0.993771
vt 0.489990 0.902832
vt 0.489990 0.757080
vt 0.635254 0.757080
vt 0.770996 0.757080
vt 0.867188 0.731445
vt 0.749023 0.557373
vt 0.749023 0.731445
vt 0.867188 0.557373
vt 0.867188 0.402344
vt 0.749023 0.402344
vt 0.994629 0.731445
vt 0.994629 0.557373
vt 0.994629 0.402344
vt 0.867188 0.731445
vt 0.749023 0.731445
vt 0.749023 0.557373
vt 0.867188 0.557373
vt 0.994629 0.731445
vt 0.994629 0.557373
vt 0.994629 0.402344
vt 0.867188 0.402344
vt 0.749023 0.402344
vt 0.867676 0.740479
vt 0.754883 0.560059
vt 0.754883 0.740479
vt 0.867676 0.560059
vt 0.867676 0.385254
vt 0.754883 0.385254
vt 0.988770 0.740479
vt 0.988770 0.560059
vt 0.988770 0.385254
vt 0.867676 0.740479
vt 0.754883 0.740479
vt 0.754883 0.560059
vt 0.867676 0.560059
vt 0.988770 0.740479
vt 0.988770 0.560059
vt 0.988770 0.385254
vt 0.867676 0.385254
vt 0.754883 0.385254
vt 0.867676 0.731445
vt 0.759766 0.557373
vt 0.759766 0.731445
vt 0.867676 0.557373
vt 0.867676 0.402344
vt 0.759766 0.402344
vt 0.983887 0.731445
vt 0.983887 0.557373
vt 0.983887 0.402344
vt 0.867676 0.731445
vt 0.759766 0.731445
vt 0.759766 0.557373
vt 0.867676 0.557373
vt 0.983887 0.731445
vt 0.983887 0.557373
vt 0.983887 0.402344
vt 0.867676 0.402344
vt 0.759766 0.402344
vt 0.630859 0.976761
vt 0.748047 0.897827
vt 0.748047 0.976761
vt 0.630859 0.897827
vt 0.630859 0.771484
vt 0.748047 0.771484
vt 0.504395 0.976761
vt 0.504395 0.897827
vt 0.504395 0.771484
vt 0.630859 0.976761
vt 0.748047 0.976761
vt 0.748047 0.897827
vt 0.630859 0.897827
vt 0.504395 0.976761
vt 0.504395 0.897827
vt 0.504395 0.771484
vt 0.630859 0.771484
vt 0.748047 0.771484
vt 0.629883 0.732178
vt 0.510742 0.548828
vt 0.510742 0.732178
vt 0.629883 0.548828
vt 0.629883 0.385254
vt 0.510742 0.385254
vt 0.758301 0.732178
vt 0.758301 0.548828
vt 0.758301 0.385254
vt 0.629883 0.732178
vt 0.510742 0.732178
vt 0.510742 0.548828
vt 0.629883 0.548828
vt 0.758301 0.732178
vt 0.758301 0.548828
vt 0.758301 0.385254
vt 0.629883 0.385254
vt 0.510742 0.385254
vt 0.625977 0.993771
vt 0.508301 0.894165
vt 0.508301 0.993771
vt 0.625977 0.894165
vt 0.625977 0.773193
vt 0.508301 0.773193
vt 0.752441 0.993771
vt 0.752441 0.894165
vt 0.752441 0.773193
vt 0.625977 0.993771
vt 0.508301 0.993771
vt 0.508301 0.894165
vt 0.625977 0.894165
vt 0.752441 0.993771
vt 0.752441 0.894165
vt 0.752441 0.773193
vt 0.625977 0.773193
vt 0.508301 0.773193
vt 0.121277 0.731445
vt 0.002790 0.557373
vt 0.002790 0.731445
vt 0.121277 0.557373
vt 0.121277 0.402344
vt 0.002790 0.402344
vt 0.248657 0.731445
vt 0.248657 0.557373
vt 0.248657 0.402344
vt 0.121277 0.731445
vt 0.002790 0.731445
vt 0.002790 0.557373
vt 0.121277 0.557373
vt 0.248657 0.731445
vt 0.248657 0.557373
vt 0.248657 0.402344
vt 0.121277 0.402344
vt 0.002790 0.402344
vt 0.619629 0.985207
vt 0.507324 0.862915
vt 0.507324 0.985207
vt 0.619629 0.862915
vt 0.619629 0.753784
vt 0.507324 0.753784
vt 0.740234 0.985207
vt 0.740234 0.862915
vt 0.740234 0.753784
vt 0.619629 0.985207
vt 0.507324 0.985207
vt 0.507324 0.862915
vt 0.619629 0.862915
vt 0.740234 0.985207
vt 0.740234 0.862915
vt 0.740234 0.753784
vt 0.619629 0.753784
vt 0.507324 0.753784
vn 0.684941 0.015626 0.728431
vn 0.666694 0.205822 0.716349
vn 0.618442 0.072788 0.782452
vn 0.646490 0.009827 0.762860
vn 0.684941 0.015626 0.728431
vn 0.646490 0.009827 0.762860
vn 0.665170 -0.189281 0.722303
vn 0.719925 -0.157755 0.675885
vn 0.719925 -0.157755 0.675885
vn 0.665170 -0.189281 0.722303
vn 0.703559 -0.222699 0.674841
vn 0.714775 -0.190200 0.672994
vn 0.646490 0.009827 0.762860
vn 0.618442 0.072788 0.782452
vn 0.604433 0.050937 0.795026
vn 0.614360 0.001984 0.789024
vn 0.665170 -0.189281 0.722303
vn 0.646490 0.009827 0.762860
vn 0.614360 0.001984 0.789024
vn 0.596008 -0.247754 0.763802
vn 0.665170 -0.189281 0.722303
vn 0.596008 -0.247754 0.763802
vn 0.614965 -0.353994 0.704632
vn 0.703559 -0.222699 0.674841
vn -0.618442 0.072788 0.782452
vn -0.666694 0.205822 0.716349
vn -0.684941 0.015626 0.728431
vn -0.646490 0.009827 0.762860
vn -0.604433 0.050937 0.795026
vn -0.618442 0.072788 0.782452
vn -0.646490 0.009827 0.762860
vn -0.614360 0.001984 0.789024
vn -0.614360 0.001984 0.789024
vn -0.646490 0.009827 0.762860
vn -0.665170 -0.189281 0.722303
vn -0.596008 -0.247754 0.763802
vn -0.614965 -0.353994 0.704632
vn -0.596008 -0.247754 0.763802
vn -0.665170 -0.189281 0.722303
vn -0.703559 -0.222699 0.674841
vn -0.665170 -0.189281 0.722303
vn -0.646490 0.009827 0.762860
vn -0.684941 0.015626 0.728431
vn -0.719925 -0.157755 0.675885
vn -0.703559 -0.222699 0.674841
vn -0.665170 -0.189281 0.722303
vn -0.719925 -0.157755 0.675885
vn -0.714775 -0.190200 0.672994
vn 0.561067 0.450373 0.694527
vn 0.511381 0.350789 0.784498
vn 0.515561 0.397147 0.759257
vn 0.564822 0.423487 0.708263
vn 0.536768 0.446188 0.716098
vn 0.561067 0.450373 0.694527
vn 0.564822 0.423487 0.708263
vn 0.543429 0.393121 0.741714
vn 0.526544 0.400592 0.749851
vn 0.536768 0.446188 0.716098
vn 0.543429 0.393121 0.741714
vn 0.523800 0.375721 0.764504
vn 0.532289 0.376579 0.758193
vn 0.523800 0.375721 0.764504
vn 0.543429 0.393121 0.741714
vn 0.559050 0.390035 0.731666
vn 0.564822 0.423487 0.708263
vn 0.515561 0.397147 0.759257
vn 0.525147 0.429682 0.734571
vn 0.571654 0.440575 0.692174
vn 0.564822 0.423487 0.708263
vn 0.571654 0.440575 0.692174
vn 0.559050 0.390035 0.731666
vn 0.543429 0.393121 0.741714
vn -0.515561 0.397147 0.759257
vn -0.511381 0.350789 0.784498
vn -0.561067 0.450373 0.694527
vn -0.564822 0.423487 0.708263
vn -0.525147 0.429682 0.734571
vn -0.515561 0.397147 0.759257
vn -0.564822 0.423487 0.708263
vn -0.571654 0.440575 0.692174
vn -0.559050 0.390035 0.731666
vn -0.571654 0.440575 0.692174
vn -0.564822 0.423487 0.708263
vn -0.543429 0.393121 0.741714
vn -0.532289 0.376579 0.758193
vn -0.559050 0.390035 0.731666
vn -0.543429 0.393121 0.741714
vn -0.523800 0.375721 0.764504
vn -0.564822 0.423487 0.708263
vn -0.561067 0.450373 0.694527
vn -0.536768 0.446188 0.716098
vn -0.543429 0.393121 0.741714
vn -0.543429 0.393121 0.741714
vn -0.536768 0.446188 0.716098
vn -0.526544 0.400592 0.749851
vn -0.523800 0.375721 0.764504
vn 0.547000 0.358756 0.756363
vn 0.546564 0.340744 0.764958
vn 0.546688 0.343950 0.763434
vn 0.547329 0.366718 0.752296
vn 0.559115 0.418665 0.715618
vn 0.547000 0.358756 0.756363
vn 0.547329 0.366718 0.752296
vn 0.560860 0.390957 0.729787
vn 0.547974 0.388114 0.741008
vn 0.559115 0.418665 0.715618
vn 0.560860 0.390957 0.729787
vn 0.541744 0.366412 0.756476
vn 0.550385 0.366262 0.750286
vn 0.541744 0.366412 0.756476
vn 0.560860 0.390957 0.729787
vn 0.564639 0.404962 0.719158
vn 0.547329 0.366718 0.752296
vn 0.546688 0.343950 0.763434
vn 0.547057 0.347126 0.761730
vn 0.549244 0.373304 0.747646
vn 0.560860 0.390957 0.729787
vn 0.547329 0.366718 0.752296
vn 0.549244 0.373304 0.747646
vn 0.564639 0.404962 0.719158
vn -0.546688 0.343950 0.763434
vn -0.546564 0.340744 0.764958
vn -0.547000 0.358756 0.756363
vn -0.547329 0.366718 0.752296
vn -0.547057 0.347126 0.761730
vn -0.546688 0.343950 0.763434
vn -0.547329 0.366718 0.752296
vn -0.549244 0.373304 0.747646
vn -0.549244 0.373304 0.747646
vn -0.547329 0.366718 0.752296
vn -0.560860 0.390957 0.729787
vn -0.564639 0.404962 0.719158
vn -0.550385 0.366262 0.750286
vn -0.564639 0.404962 0.719158
vn -0.560860 0.390957 0.729787
vn -0.541744 0.366412 0.756476
vn -0.547329 0.366718 0.752296
vn -0.547000 0.358756 0.756363
vn -0.559115 0.418665 0.715618
vn -0.560860 0.390957 0.729787
vn -0.560860 0.390957 0.729787
vn -0.559115 0.418665 0.715618
vn -0.547974 0.388114 0.741008
vn -0.541744 0.366412 0.756476
vn 0.653661 0.201274 0.729532
vn 0.603398 0.316211 0.732067
vn 0.601842 0.321735 0.730939
vn 0.641793 0.236953 0.729353
vn 0.708202 -0.013428 0.705882
vn 0.653661 0.201274 0.729532
vn 0.641793 0.236953 0.729353
vn 0.701582 0.050479 0.710799
vn 0.721900 -0.060641 0.689336
vn 0.708202 -0.013428 0.705882
vn 0.701582 0.050479 0.710799
vn 0.725993 -0.045962 0.686165
vn 0.720138 -0.044131 0.692426
vn 0.725993 -0.045962 0.686165
vn 0.701582 0.050479 0.710799
vn 0.691163 0.090000 0.717073
vn 0.641793 0.236953 0.729353
vn 0.601842 0.321735 0.730939
vn 0.601233 0.326985 0.729109
vn 0.631711 0.266217 0.728059
vn 0.701582 0.050479 0.710799
vn 0.641793 0.236953 0.729353
vn 0.631711 0.266217 0.728059
vn 0.691163 0.090000 0.717073
vn -0.601842 0.321735 0.730939
vn -0.603398 0.316211 0.732067
vn -0.653661 0.201274 0.729532
vn -0.641793 0.236953 0.729353
vn -0.601233 0.326985 0.729109
vn -0.601842 0.321735 0.730939
vn -0.641793 0.236953 0.729353
vn -0.631711 0.266217 0.728059
vn -0.631711 0.266217 0.728059
vn -0.641793 0.236953 0.729353
vn -0.701582 0.050479 0.710799
vn -0.691163 0.090000 0.717073
vn -0.720138 -0.044131 0.692426
vn -0.691163 0.090000 0.717073
vn -0.701582 0.050479 0.710799
vn -0.725993 -0.045962 0.686165
vn -0.641793 0.236953 0.729353
vn -0.653661 0.201274 0.729532
vn -0.708202 -0.013428 0.705882
vn -0.701582 0.050479 0.710799
vn -0.701582 0.050479 0.710799
vn -0.708202 -0.013428 0.705882
vn -0.721900 -0.060641 0.689336
vn -0.725993 -0.045962 0.686165
vn 0.759412 0.375113 0.531586
vn 0.737535 0.288257 0.610696
vn 0.655527 0.329396 0.679546
vn 0.673126 0.311781 0.670592
vn 0.716871 0.466246 0.518373
vn 0.759412 0.375113 0.531586
vn 0.673126 0.311781 0.670592
vn 0.685958 0.283771 0.670027
vn 0.708304 0.389402 0.588788
vn 0.716871 0.466246 0.518373
vn 0.685958 0.283771 0.670027
vn 0.697396 0.284257 0.657904
vn 0.649603 0.196483 0.734446
vn 0.697396 0.284257 0.657904
vn 0.685958 0.283771 0.670027
vn 0.613031 0.209817 0.761689
vn 0.673126 0.311781 0.670592
vn 0.655527 0.329396 0.679546
vn 0.557866 0.313405 0.768481
vn 0.577086 0.261488 0.773690
vn 0.685958 0.283771 0.670027
vn 0.673126 0.311781 0.670592
vn 0.577086 0.261488 0.773690
vn 0.613031 0.209817 0.761689
vn -0.655527 0.329396 0.679546
vn -0.737535 0.288257 0.610696
vn -0.759412 0.375113 0.531586
vn -0.673126 0.311781 0.670592
vn -0.557866 0.313405 0.768481
vn -0.655527 0.329396 0.679546
vn -0.673126 0.311781 0.670592
vn -0.577086 0.261488 0.773690
vn -0.577086 0.261488 0.773690
vn -0.673126 0.311781 0.670592
vn -0.685958 0.283771 0.670027
vn -0.613031 0.209817 0.761689
vn -0.649603 0.196483 0.734446
vn -0.613031 0.209817 0.761689
vn -0.685958 0.283771 0.670027
vn -0.697396 0.284257 0.657904
vn -0.673126 0.311781 0.670592
vn -0.759412 0.375113 0.531586
vn -0.716871 0.466246 0.518373
vn -0.685958 0.283771 0.670027
vn -0.685958 0.283771 0.670027
vn -0.716871 0.466246 0.518373
vn -0.708304 0.389402 0.588788
vn -0.697396 0.284257 0.657904
vn 0.594113 0.334885 0.731356
vn 0.590842 0.369581 0.717158
vn 0.590816 0.367112 0.718446
vn 0.591734 0.356982 0.722783
vn 0.603712 0.415374 0.680438
vn 0.594113 0.334885 0.731356
vn 0.591734 0.356982 0.722783
vn 0.608404 0.397668 0.686808
vn 0.599251 0.420163 0.681440
vn 0.603712 0.415374 0.680438
vn 0.608404 0.397668 0.686808
vn 0.598701 0.412837 0.686384
vn 0.601327 0.412869 0.684065
vn 0.598701 0.412837 0.686384
vn 0.608404 0.397668 0.686808
vn 0.609743 0.405570 0.680975
vn 0.591734 0.356982 0.722783
vn 0.590816 0.367112 0.718446
vn 0.590364 0.365071 0.719857
vn 0.592348 0.366780 0.717354
vn 0.608404 0.397668 0.686808
vn 0.591734 0.356982 0.722783
vn 0.592348 0.366780 0.717354
vn 0.609743 0.405570 0.680975
vn -0.590816 0.367112 0.718446
vn -0.590842 0.369581 0.717158
vn -0.594113 0.334885 0.731356
vn -0.591734 0.356982 0.722783
vn -0.590364 0.365071 0.719857
vn -0.590816 0.367112 0.718446
vn -0.591734 0.356982 0.722783
vn -0.592348 0.366780 0.717354
vn -0.592348 0.366780 0.717354
vn -0.591734 0.356982 0.722783
vn -0.608404 0.397668 0.686808
vn -0.609743 0.405570 0.680975
vn -0.601327 0.412869 0.684065
vn -0.609743 0.405570 0.680975
vn -0.608404 0.397668 0.686808
vn -0.598701 0.412837 0.686384
vn -0.591734 0.356982 0.722783
vn -0.594113 0.334885 0.731356
vn -0.603712 0.415374 0.680438
vn -0.608404 0.397668 0.686808
vn -0.608404 0.397668 0.686808
vn -0.603712 0.415374 0.680438
vn -0.599251 0.420163 0.681440
vn -0.598701 0.412837 0.686384
vn 0.584839 0.434868 0.684728
vn 0.594214 0.414790 0.689099
vn 0.593476 0.411734 0.691564
vn 0.584603 0.423825 0.691818
vn 0.563872 0.443810 0.696478
vn 0.584839 0.434868 0.684728
vn 0.584603 0.423825 0.691818
vn 0.563443 0.423239 0.709507
vn 0.552496 0.427915 0.715288
vn 0.563872 0.443810 0.696478
vn 0.563443 0.423239 0.709507
vn 0.547584 0.416288 0.725849
vn 0.556126 0.412380 0.721572
vn 0.547584 0.416288 0.725849
vn 0.563443 0.423239 0.709507
vn 0.568571 0.413503 0.711156
vn 0.584603 0.423825 0.691818
vn 0.593476 0.411734 0.691564
vn 0.592601 0.409116 0.693865
vn 0.583230 0.417264 0.696946
vn 0.563443 0.423239 0.709507
vn 0.584603 0.423825 0.691818
vn 0.583230 0.417264 0.696946
vn 0.568571 0.413503 0.711156
vn -0.593476 0.411734 0.691564
vn -0.594214 0.414790 0.689099
vn -0.584839 0.434868 0.684728
vn -0.584603 0.423825 0.691818
vn -0.592601 0.409116 0.693865
vn -0.593476 0.411734 0.691564
vn -0.584603 0.423825 0.691818
vn -0.583230 0.417264 0.696946
vn -0.583230 0.417264 0.696946
vn -0.584603 0.423825 0.691818
vn -0.563443 0.423239 0.709507
vn -0.568571 0.413503 0.711156
vn -0.556126 0.412380 0.721572
vn -0.568571 0.413503 0.711156
vn -0.563443 0.423239 0.709507
vn -0.547584 0.416288 0.725849
vn -0.584603 0.423825 0.691818
vn -0.584839 0.434868 0.684728
vn -0.563872 0.443810 0.696478
vn -0.563443 0.423239 0.709507
vn -0.563443 0.423239 0.709507
vn -0.563872 0.443810 0.696478
vn -0.552496 0.427915 0.715288
vn -0.547584 0.416288 0.725849
vn 0.212933 0.380239 0.900043
vn 0.255656 0.428270 0.866733
vn 0.241894 0.395252 0.886151
vn 0.205088 0.377612 0.902966
vn 0.224652 0.345050 0.911303
vn 0.212933 0.380239 0.900043
vn 0.205088 0.377612 0.902966
vn 0.214552 0.353050 0.910672
vn 0.224652 0.345050 0.911303
vn 0.214552 0.353050 0.910672
vn 0.243057 0.343161 0.907284
vn 0.260848 0.319171 0.911092
vn 0.216684 0.373674 0.901896
vn 0.205088 0.377612 0.902966
vn 0.241894 0.395252 0.886151
vn 0.270215 0.358659 0.893503
vn 0.214552 0.353050 0.910672
vn 0.205088 0.377612 0.902966
vn 0.216684 0.373674 0.901896
vn 0.223160 0.363550 0.904450
vn 0.243057 0.343161 0.907284
vn 0.214552 0.353050 0.910672
vn 0.223160 0.363550 0.904450
vn 0.258130 0.380603 0.887981
vn -0.241894 0.395252 0.886151
vn -0.255656 0.428270 0.866733
vn -0.212933 0.380239 0.900043
vn -0.205088 0.377612 0.902966
vn -0.241894 0.395252 0.886151
vn -0.205088 0.377612 0.902966
vn -0.216684 0.373674 0.901896
vn -0.270215 0.358659 0.893503
vn -0.205088 0.377612 0.902966
vn -0.212933 0.380239 0.900043
vn -0.224652 0.345050 0.911303
vn -0.214552 0.353050 0.910672
vn -0.216684 0.373674 0.901896
vn -0.205088 0.377612 0.902966
vn -0.214552 0.353050 0.910672
vn -0.223160 0.363550 0.904450
vn -0.223160 0.363550 0.904450
vn -0.214552 0.353050 0.910672
vn -0.243057 0.343161 0.907284
vn -0.258130 0.380603 0.887981
vn -0.243057 0.343161 0.907284
vn -0.214552 0.353050 0.910672
vn -0.224652 0.345050 0.911303
vn -0.260848 0.319171 0.911092
vn 0.692812 0.411488 0.592191
vn 0.696935 0.271407 0.663792
vn 0.691729 0.326591 0.644088
vn 0.689824 0.394918 0.606781
vn 0.623486 0.520269 0.583597
vn 0.692812 0.411488 0.592191
vn 0.689824 0.394918 0.606781
vn 0.640778 0.459434 0.615081
vn 0.605323 0.510927 0.610359
vn 0.623486 0.520269 0.583597
vn 0.640778 0.459434 0.615081
vn 0.608593 0.486697 0.626691
vn 0.609164 0.486935 0.625950
vn 0.608593 0.486697 0.626691
vn 0.640778 0.459434 0.615081
vn 0.647625 0.421750 0.634593
vn 0.689824 0.394918 0.606781
vn 0.691729 0.326591 0.644088
vn 0.684145 0.348802 0.640533
vn 0.681597 0.384487 0.622572
vn 0.640778 0.459434 0.615081
vn 0.689824 0.394918 0.606781
vn 0.681597 0.384487 0.622572
vn 0.647625 0.421750 0.634593
vn -0.691729 0.326591 0.644088
vn -0.696935 0.271407 0.663792
vn -0.692812 0.411488 0.592191
vn -0.689824 0.394918 0.606781
vn -0.684145 0.348802 0.640533
vn -0.691729 0.326591 0.644088
vn -0.689824 0.394918 0.606781
vn -0.681597 0.384487 0.622572
vn -0.681597 0.384487 0.622572
vn -0.689824 0.394918 0.606781
vn -0.640778 0.459434 0.615081
vn -0.647625 0.421750 0.634593
vn -0.609164 0.486935 0.625950
vn -0.647625 0.421750 0.634593
vn -0.640778 0.459434 0.615081
vn -0.608593 0.486697 0.626691
vn -0.689824 0.394918 0.606781
vn -0.692812 0.411488 0.592191
vn -0.623486 0.520269 0.583597
vn -0.640778 0.459434 0.615081
vn -0.640778 0.459434 0.615081
vn -0.623486 0.520269 0.583597
vn -0.605323 0.510927 0.610359
vn -0.608593 0.486697 0.626691
vn 0.563752 0.490292 0.664679
vn 0.554206 0.507023 0.660139
vn 0.530178 0.512080 0.675785
vn 0.547459 0.482972 0.683393
vn 0.540623 0.477600 0.692549
vn 0.563752 0.490292 0.664679
vn 0.547459 0.482972 0.683393
vn 0.538394 0.466216 0.701979
vn 0.539794 0.509885 0.669806
vn 0.540623 0.477600 0.692549
vn 0.538394 0.466216 0.701979
vn 0.531401 0.510526 0.676001
vn 0.516839 0.488487 0.703035
vn 0.531401 0.510526 0.676001
vn 0.538394 0.466216 0.701979
vn 0.542672 0.456210 0.705251
vn 0.547459 0.482972 0.683393
vn 0.530178 0.512080 0.675785
vn 0.517442 0.520372 0.679313
vn 0.537744 0.493065 0.683899
vn 0.538394 0.466216 0.701979
vn 0.547459 0.482972 0.683393
vn 0.537744 0.493065 0.683899
vn 0.542672 0.456210 0.705251
vn -0.530178 0.512080 0.675785
vn -0.554206 0.507023 0.660139
vn -0.563752 0.490292 0.664679
vn -0.547459 0.482972 0.683393
vn -0.517442 0.520372 0.679313
vn -0.530178 0.512080 0.675785
vn -0.547459 0.482972 0.683393
vn -0.537744 0.493065 0.683899
vn -0.537744 0.493065 0.683899
vn -0.547459 0.482972 0.683393
vn -0.538394 0.466216 0.701979
vn -0.542672 0.456210 0.705251
vn -0.516839 0.488487 0.703035
vn -0.542672 0.456210 0.705251
vn -0.538394 0.466216 0.701979
vn -0.531401 0.510526 0.676001
vn -0.547459 0.482972 0.683393
vn -0.563752 0.490292 0.664679
vn -0.540623 0.477600 0.692549
vn -0.538394 0.466216 0.701979
vn -0.538394 0.466216 0.701979
vn -0.540623 0.477600 0.692549
vn -0.539794 0.509885 0.669806
vn -0.531401 0.510526 0.676001
vn 0.468259 0.328847 0.820118
vn 0.487518 0.403681 0.774188
vn 0.316152 0.308400 0.897183
vn 0.280009 0.275492 0.919619
vn 0.468259 0.328847 0.820118
vn 0.280009 0.275492 0.919619
vn 0.362842 0.274550 0.890487
vn 0.482876 0.295580 0.824296
vn 0.280009 0.275492 0.919619
vn 0.316152 0.308400 0.897183
vn 0.103428 0.227365 0.968301
vn 0.087529 0.253399 0.963394
vn 0.280009 0.275492 0.919619
vn 0.087529 0.253399 0.963394
vn 0.131996 0.247574 0.959836
vn 0.362842 0.274550 0.890487
vn -0.316152 0.308400 0.897183
vn -0.487518 0.403681 0.774188
vn -0.468259 0.328847 0.820118
vn -0.280009 0.275492 0.919619
vn -0.103428 0.227365 0.968301
vn -0.316152 0.308400 0.897183
vn -0.280009 0.275492 0.919619
vn -0.087529 0.253399 0.963394
vn -0.131996 0.247574 0.959836
vn -0.087529 0.253399 0.963394
vn -0.280009 0.275492 0.919619
vn -0.362842 0.274550 0.890487
vn -0.362842 0.274550 0.890487
vn -0.280009 0.275492 0.919619
vn -0.468259 0.328847 0.820118
vn -0.482876 0.295580 0.824296
vn 0.656566 -0.075261 0.750505
vn 0.626712 -0.180338 0.758097
vn 0.626951 -0.088718 0.773991
vn 0.650517 -0.099554 0.752939
vn 0.656566 -0.075261 0.750505
vn 0.650517 -0.099554 0.752939
vn 0.651125 -0.100896 0.752234
vn 0.645322 -0.073703 0.760347
vn 0.650517 -0.099554 0.752939
vn 0.626951 -0.088718 0.773991
vn 0.629313 -0.058018 0.774983
vn 0.639079 -0.065525 0.766345
vn 0.650517 -0.099554 0.752939
vn 0.639079 -0.065525 0.766345
vn 0.629093 -0.197307 0.751872
vn 0.651125 -0.100896 0.752234
vn -0.626951 -0.088718 0.773991
vn -0.626712 -0.180338 0.758097
vn -0.656566 -0.075261 0.750505
vn -0.650517 -0.099554 0.752939
vn -0.629313 -0.058018 0.774983
vn -0.626951 -0.088718 0.773991
vn -0.650517 -0.099554 0.752939
vn -0.639079 -0.065525 0.766345
vn -0.629093 -0.197307 0.751872
vn -0.639079 -0.065525 0.766345
vn -0.650517 -0.099554 0.752939
vn -0.651125 -0.100896 0.752234
vn -0.651125 -0.100896 0.752234
vn -0.650517 -0.099554 0.752939
vn -0.656566 -0.075261 0.750505
vn -0.645322 -0.073703 0.760347
vn 0.658241 -0.048648 0.751234
vn 0.661841 0.150185 0.734446
vn 0.591247 -0.064151 0.803935
vn 0.628338 -0.122475 0.768239
vn 0.658241 -0.048648 0.751234
vn 0.628338 -0.122475 0.768239
vn 0.653292 -0.114355 0.748420
vn 0.641175 -0.070316 0.764167
vn 0.628338 -0.122475 0.768239
vn 0.591247 -0.064151 0.803935
vn 0.578576 -0.069217 0.812686
vn 0.585689 -0.090611 0.805455
vn 0.628338 -0.122475 0.768239
vn 0.585689 -0.090611 0.805455
vn 0.583556 -0.301254 0.754128
vn 0.653292 -0.114355 0.748420
vn -0.591247 -0.064151 0.803935
vn -0.661841 0.150185 0.734446
vn -0.658241 -0.048648 0.751234
vn -0.628338 -0.122475 0.768239
vn -0.578576 -0.069217 0.812686
vn -0.591247 -0.064151 0.803935
vn -0.628338 -0.122475 0.768239
vn -0.585689 -0.090611 0.805455
vn -0.583556 -0.301254 0.754128
vn -0.585689 -0.090611 0.805455
vn -0.628338 -0.122475 0.768239
vn -0.653292 -0.114355 0.748420
vn -0.653292 -0.114355 0.748420
vn -0.628338 -0.122475 0.768239
vn -0.658241 -0.048648 0.751234
vn -0.641175 -0.070316 0.764167
vn 0.571505 0.109137 0.813309
vn 0.472439 0.020570 0.881123
vn 0.434316 0.175820 0.883435
vn 0.544152 0.232401 0.806157
vn 0.571505 0.109137 0.813309
vn 0.544152 0.232401 0.806157
vn 0.609314 0.116797 0.784280
vn 0.584657 0.085088 0.806806
vn 0.544152 0.232401 0.806157
vn 0.434316 0.175820 0.883435
vn 0.426013 0.261211 0.866188
vn 0.466034 0.320364 0.824730
vn 0.544152 0.232401 0.806157
vn 0.466034 0.320364 0.824730
vn 0.575551 0.239266 0.781980
vn 0.609314 0.116797 0.784280
vn -0.434316 0.175820 0.883435
vn -0.472439 0.020570 0.881123
vn -0.571505 0.109137 0.813309
vn -0.544152 0.232401 0.806157
vn -0.426013 0.261211 0.866188
vn -0.434316 0.175820 0.883435
vn -0.544152 0.232401 0.806157
vn -0.466034 0.320364 0.824730
vn -0.575551 0.239266 0.781980
vn -0.466034 0.320364 0.824730
vn -0.544152 0.232401 0.806157
vn -0.609314 0.116797 0.784280
vn -0.609314 0.116797 0.784280
vn -0.544152 0.232401 0.806157
vn -0.571505 0.109137 0.813309
vn -0.584657 0.085088 0.806806
vn 0.612494 0.059604 0.788225
vn 0.470607 -0.001221 0.882342
vn 0.463001 0.183174 0.867224
vn 0.605596 0.176616 0.775925
vn 0.612494 0.059604 0.788225
vn 0.605596 0.176616 0.775925
vn 0.628012 0.017335 0.778011
vn 0.645457 0.010743 0.763721
vn 0.605596 0.176616 0.775925
vn 0.463001 0.183174 0.867224
vn 0.504151 0.310261 0.805959
vn 0.596081 0.258380 0.760216
vn 0.605596 0.176616 0.775925
vn 0.596081 0.258380 0.760216
vn 0.619447 0.016664 0.784861
vn 0.628012 0.017335 0.778011
vn -0.463001 0.183174 0.867224
vn -0.470607 -0.001221 0.882342
vn -0.612494 0.059604 0.788225
vn -0.605596 0.176616 0.775925
vn -0.504151 0.310261 0.805959
vn -0.463001 0.183174 0.867224
vn -0.605596 0.176616 0.775925
vn -0.596081 0.258380 0.760216
vn -0.619447 0.016664 0.784861
vn -0.596081 0.258380 0.760216
vn -0.605596 0.176616 0.775925
vn -0.628012 0.017335 0.778011
vn -0.628012 0.017335 0.778011
vn -0.605596 0.176616 0.775925
vn -0.612494 0.059604 0.788225
vn -0.645457 0.010743 0.763721
vn 0.488493 0.347677 0.800310
vn 0.486021 0.371879 0.790879
vn 0.304246 0.381886 0.872695
vn 0.245863 0.328326 0.912005
vn 0.488493 0.347677 0.800310
vn 0.245863 0.328326 0.912005
vn 0.289688 0.303209 0.907825
vn 0.479459 0.334096 0.811479
vn 0.245863 0.328326 0.912005
vn 0.304246 0.381886 0.872695
vn 0.009217 0.310349 0.950578
vn -0.045748 0.273115 0.960893
vn 0.245863 0.328326 0.912005
vn -0.045748 0.273115 0.960893
vn -0.014008 0.272690 0.962000
vn 0.289688 0.303209 0.907825
vn -0.304246 0.381886 0.872695
vn -0.486021 0.371879 0.790879
vn -0.488493 0.347677 0.800310
vn -0.245863 0.328326 0.912005
vn -0.009217 0.310349 0.950578
vn -0.304246 0.381886 0.872695
vn -0.245863 0.328326 0.912005
vn 0.045748 0.273115 0.960893
vn 0.014008 0.272690 0.962000
vn 0.045748 0.273115 0.960893
vn -0.245863 0.328326 0.912005
vn -0.289688 0.303209 0.907825
vn -0.289688 0.303209 0.907825
vn -0.245863 0.328326 0.912005
vn -0.488493 0.347677 0.800310
vn -0.479459 0.334096 0.811479
vn 0.626315 0.177195 0.759165
vn 0.551298 0.257368 0.793620
vn 0.462491 0.325703 0.824633
vn 0.568943 0.237991 0.787188
vn 0.626315 0.177195 0.759165
vn 0.568943 0.237991 0.787188
vn 0.622586 0.091923 0.777134
vn 0.623174 0.109809 0.774336
vn 0.568943 0.237991 0.787188
vn 0.462491 0.325703 0.824633
vn 0.425677 0.361557 0.829503
vn 0.489557 0.294113 0.820872
vn 0.568943 0.237991 0.787188
vn 0.489557 0.294113 0.820872
vn 0.556214 0.074955 0.827652
vn 0.622586 0.091923 0.777134
vn -0.462491 0.325703 0.824633
vn -0.551298 0.257368 0.793620
vn -0.626315 0.177195 0.759165
vn -0.568943 0.237991 0.787188
vn -0.425677 0.361557 0.829503
vn -0.462491 0.325703 0.824633
vn -0.568943 0.237991 0.787188
vn -0.489557 0.294113 0.820872
vn -0.556214 0.074955 0.827652
vn -0.489557 0.294113 0.820872
vn -0.568943 0.237991 0.787188
vn -0.622586 0.091923 0.777134
vn -0.622586 0.091923 0.777134
vn -0.568943 0.237991 0.787188
vn -0.626315 0.177195 0.759165
vn -0.623174 0.109809 0.774336
vn 0.698742 0.040164 0.714246
vn 0.597480 0.076390 0.798237
vn 0.583094 0.179482 0.792331
vn 0.649355 0.086400 0.755562
vn 0.698742 0.040164 0.714246
vn 0.649355 0.086400 0.755562
vn 0.708451 -0.040896 0.704575
vn 0.716839 -0.027498 0.696696
vn 0.649355 0.086400 0.755562
vn 0.583094 0.179482 0.792331
vn 0.561825 0.178323 0.807808
vn 0.573970 0.115606 0.810675
vn 0.649355 0.086400 0.755562
vn 0.573970 0.115606 0.810675
vn 0.636085 -0.061313 0.769179
vn 0.708451 -0.040896 0.704575
vn -0.583094 0.179482 0.792331
vn -0.597480 0.076390 0.798237
vn -0.698742 0.040164 0.714246
vn -0.649355 0.086400 0.755562
vn -0.561825 0.178323 0.807808
vn -0.583094 0.179482 0.792331
vn -0.649355 0.086400 0.755562
vn -0.573970 0.115606 0.810675
vn -0.636085 -0.061313 0.769179
vn -0.573970 0.115606 0.810675
vn -0.649355 0.086400 0.755562
vn -0.708451 -0.040896 0.704575
vn -0.708451 -0.040896 0.704575
vn -0.649355 0.086400 0.755562
vn -0.698742 0.040164 0.714246
vn -0.716839 -0.027498 0.696696
vn 0.673989 0.103277 0.731487
vn 0.660722 0.306510 0.685199
vn 0.606722 0.278213 0.744638
vn 0.650616 0.092841 0.753711
vn 0.673989 0.103277 0.731487
vn 0.650616 0.092841 0.753711
vn 0.666630 -0.033479 0.744637
vn 0.629150 0.065585 0.774512
vn 0.650616 0.092841 0.753711
vn 0.606722 0.278213 0.744638
vn 0.572074 0.214730 0.791595
vn 0.575931 0.073064 0.814227
vn 0.650616 0.092841 0.753711
vn 0.575931 0.073064 0.814227
vn 0.586005 -0.141244 0.797902
vn 0.666630 -0.033479 0.744637
vn -0.606722 0.278213 0.744638
vn -0.660722 0.306510 0.685199
vn -0.673989 0.103277 0.731487
vn -0.650616 0.092841 0.753711
vn -0.572074 0.214730 0.791595
vn -0.606722 0.278213 0.744638
vn -0.650616 0.092841 0.753711
vn -0.575931 0.073064 0.814227
vn -0.586005 -0.141244 0.797902
vn -0.575931 0.073064 0.814227
vn -0.650616 0.092841 0.753711
vn -0.666630 -0.033479 0.744637
vn -0.666630 -0.033479 0.744637
vn -0.650616 0.092841 0.753711
vn -0.673989 0.103277 0.731487
vn -0.629150 0.065585 0.774512
vn 0.652054 0.142069 0.744743
vn 0.619365 0.189008 0.762013
vn 0.556758 0.227458 0.798926
vn 0.613112 0.152324 0.775172
vn 0.652054 0.142069 0.744743
vn 0.613112 0.152324 0.775172
vn 0.645291 0.074588 0.760287
vn 0.646492 0.118019 0.753737
vn 0.613112 0.152324 0.775172
vn 0.556758 0.227458 0.798926
vn 0.541586 0.259684 0.799530
vn 0.565552 0.192149 0.802016
vn 0.613112 0.152324 0.775172
vn 0.565552 0.192149 0.802016
vn 0.586333 0.007294 0.810038
vn 0.645291 0.074588 0.760287
vn -0.556758 0.227458 0.798926
vn -0.619365 0.189008 0.762013
vn -0.652054 0.142069 0.744743
vn -0.613112 0.152324 0.775172
vn -0.541586 0.259684 0.799530
vn -0.556758 0.227458 0.798926
vn -0.613112 0.152324 0.775172
vn -0.565552 0.192149 0.802016
vn -0.586333 0.007294 0.810038
vn -0.565552 0.192149 0.802016
vn -0.613112 0.152324 0.775172
vn -0.645291 0.074588 0.760287
vn -0.645291 0.074588 0.760287
vn -0.613112 0.152324 0.775172
vn -0.652054 0.142069 0.744743
vn -0.646492 0.118019 0.753737
vn 0.671937 0.147041 0.725864
vn 0.600772 0.174540 0.780134
vn 0.506861 0.247632 0.825694
vn 0.606969 0.169200 0.776505
vn 0.671937 0.147041 0.725864
vn 0.606969 0.169200 0.776505
vn 0.656715 0.046084 0.752729
vn 0.664980 0.107732 0.739050
vn 0.606969 0.169200 0.776505
vn 0.506861 0.247632 0.825694
vn 0.477442 0.267775 0.836866
vn 0.506252 0.215465 0.835035
vn 0.606969 0.169200 0.776505
vn 0.506252 0.215465 0.835035
vn 0.533600 -0.020997 0.845477
vn 0.656715 0.046084 0.752729
vn -0.506861 0.247632 0.825694
vn -0.600772 0.174540 0.780134
vn -0.671937 0.147041 0.725864
vn -0.606969 0.169200 0.776505
vn -0.477442 0.267775 0.836866
vn -0.506861 0.247632 0.825694
vn -0.606969 0.169200 0.776505
vn -0.506252 0.215465 0.835035
vn -0.533600 -0.020997 0.845477
vn -0.506252 0.215465 0.835035
vn -0.606969 0.169200 0.776505
vn -0.656715 0.046084 0.752729
vn -0.656715 0.046084 0.752729
vn -0.606969 0.169200 0.776505
vn -0.671937 0.147041 0.725864
vn -0.664980 0.107732 0.739050
vn 0.576353 0.192148 0.794290
vn 0.445607 0.206827 0.871010
vn 0.470067 0.380278 0.796508
vn 0.522852 0.283491 0.803902
vn 0.576353 0.192148 0.794290
vn 0.522852 0.283491 0.803902
vn 0.589336 0.127176 0.797816
vn 0.626468 0.113562 0.771130
vn 0.522852 0.283491 0.803902
vn 0.470067 0.380278 0.796508
vn 0.441089 0.386765 0.809848
vn 0.445946 0.308641 0.840162
vn 0.522852 0.283491 0.803902
vn 0.445946 0.308641 0.840162
vn 0.507105 0.157875 0.847301
vn 0.589336 0.127176 0.797816
vn -0.470067 0.380278 0.796508
vn -0.445607 0.206827 0.871010
vn -0.576353 0.192148 0.794290
vn -0.522852 0.283491 0.803902
vn -0.441089 0.386765 0.809848
vn -0.470067 0.380278 0.796508
vn -0.522852 0.283491 0.803902
vn -0.445946 0.308641 0.840162
vn -0.507105 0.157875 0.847301
vn -0.445946 0.308641 0.840162
vn -0.522852 0.283491 0.803902
vn -0.589336 0.127176 0.797816
vn -0.589336 0.127176 0.797816
vn -0.522852 0.283491 0.803902
vn -0.576353 0.192148 0.794290
vn -0.626468 0.113562 0.771130
vn 0.531858 0.299118 0.792247
vn 0.447386 0.413479 0.793020
vn 0.325702 0.445093 0.834153
vn 0.343982 0.314042 0.884903
vn 0.531858 0.299118 0.792247
vn 0.343982 0.314042 0.884903
vn 0.432831 0.156139 0.887850
vn 0.602816 0.138954 0.785687
vn 0.343982 0.314042 0.884903
vn 0.325702 0.445093 0.834153
vn 0.121985 0.429312 0.894880
vn 0.132056 0.314346 0.940078
vn 0.343982 0.314042 0.884903
vn 0.132056 0.314346 0.940078
vn 0.175852 0.178812 0.968040
vn 0.432831 0.156139 0.887850
vn -0.325702 0.445093 0.834153
vn -0.447386 0.413479 0.793020
vn -0.531858 0.299118 0.792247
vn -0.343982 0.314042 0.884903
vn -0.121985 0.429312 0.894880
vn -0.325702 0.445093 0.834153
vn -0.343982 0.314042 0.884903
vn -0.132056 0.314346 0.940078
vn -0.175852 0.178812 0.968040
vn -0.132056 0.314346 0.940078
vn -0.343982 0.314042 0.884903
vn -0.432831 0.156139 0.887850
vn -0.432831 0.156139 0.887850
vn -0.343982 0.314042 0.884903
vn -0.531858 0.299118 0.792247
vn -0.602816 0.138954 0.785687
vn 0.693938 0.303358 0.653012
vn 0.627017 0.178110 0.758371
vn 0.546755 0.307086 0.778946
vn 0.627602 0.263749 0.732497
vn 0.693938 0.303358 0.653012
vn 0.627602 0.263749 0.732497
vn 0.682376 0.248059 0.687626
vn 0.701690 0.293012 0.649442
vn 0.627602 0.263749 0.732497
vn 0.546755 0.307086 0.778946
vn 0.526057 0.340165 0.779456
vn 0.559941 0.280291 0.779681
vn 0.627602 0.263749 0.732497
vn 0.559941 0.280291 0.779681
vn 0.584961 0.097936 0.805127
vn 0.682376 0.248059 0.687626
vn -0.546755 0.307086 0.778946
vn -0.627017 0.178110 0.758371
vn -0.693938 0.303358 0.653012
vn -0.627602 0.263749 0.732497
vn -0.526057 0.340165 0.779456
vn -0.546755 0.307086 0.778946
vn -0.627602 0.263749 0.732497
vn -0.559941 0.280291 0.779681
vn -0.584961 0.097936 0.805127
vn -0.559941 0.280291 0.779681
vn -0.627602 0.263749 0.732497
vn -0.682376 0.248059 0.687626
vn -0.682376 0.248059 0.687626
vn -0.627602 0.263749 0.732497
vn -0.693938 0.303358 0.653012
vn -0.701690 0.293012 0.649442
vn 0.567042 0.234660 0.789556
vn 0.484308 0.414938 0.770242
vn 0.461178 0.444789 0.767775
vn 0.510860 0.294296 0.807720
vn 0.567042 0.234660 0.789556
vn 0.510860 0.294296 0.807720
vn 0.583529 0.134987 0.800795
vn 0.590999 0.140479 0.794346
vn 0.510860 0.294296 0.807720
vn 0.461178 0.444789 0.767775
vn 0.430508 0.414211 0.801930
vn 0.437188 0.306993 0.845353
vn 0.510860 0.294296 0.807720
vn 0.437188 0.306993 0.845353
vn 0.524383 0.135933 0.840562
vn 0.583529 0.134987 0.800795
vn -0.461178 0.444789 0.767775
vn -0.484308 0.414938 0.770242
vn -0.567042 0.234660 0.789556
vn -0.510860 0.294296 0.807720
vn -0.430508 0.414211 0.801930
vn -0.461178 0.444789 0.767775
vn -0.510860 0.294296 0.807720
vn -0.437188 0.306993 0.845353
vn -0.524383 0.135933 0.840562
vn -0.437188 0.306993 0.845353
vn -0.510860 0.294296 0.807720
vn -0.583529 0.134987 0.800795
vn -0.583529 0.134987 0.800795
vn -0.510860 0.294296 0.807720
vn -0.567042 0.234660 0.789556
vn -0.590999 0.140479 0.794346
vn 0.542084 0.398399 0.739880
vn 0.483303 0.460261 0.744700
vn 0.425680 0.489007 0.761359
vn 0.462250 0.401333 0.790732
vn 0.542084 0.398399 0.739880
vn 0.462250 0.401333 0.790732
vn 0.517767 0.323387 0.792047
vn 0.572943 0.343528 0.744127
vn 0.462250 0.401333 0.790732
vn 0.425680 0.489007 0.761359
vn 0.375757 0.457367 0.805992
vn 0.395046 0.364282 0.843349
vn 0.462250 0.401333 0.790732
vn 0.395046 0.364282 0.843349
vn 0.420095 0.247998 0.872936
vn 0.517767 0.323387 0.792047
vn -0.425680 0.489007 0.761359
vn -0.483303 0.460261 0.744700
vn -0.542084 0.398399 0.739880
vn -0.462250 0.401333 0.790732
vn -0.375757 0.457367 0.805992
vn -0.425680 0.489007 0.761359
vn -0.462250 0.401333 0.790732
vn -0.395046 0.364282 0.843349
vn -0.420095 0.247998 0.872936
vn -0.395046 0.364282 0.843349
vn -0.462250 0.401333 0.790732
vn -0.517767 0.323387 0.792047
vn -0.517767 0.323387 0.792047
vn -0.462250 0.401333 0.790732
vn -0.542084 0.398399 0.739880
vn -0.572943 0.343528 0.744127
vn 0.563807 0.349473 0.748325
vn 0.483826 0.396662 0.780110
vn 0.492058 0.504418 0.709536
vn 0.512665 0.381615 0.769120
vn 0.563807 0.349473 0.748325
vn 0.512665 0.381615 0.769120
vn 0.560577 0.279800 0.779400
vn 0.584171 0.300890 0.753797
vn 0.512665 0.381615 0.769120
vn 0.492058 0.504418 0.709536
vn 0.466607 0.467767 0.750648
vn 0.459988 0.348806 0.816545
vn 0.512665 0.381615 0.769120
vn 0.459988 0.348806 0.816545
vn 0.489225 0.221876 0.843463
vn 0.560577 0.279800 0.779400
vn -0.492058 0.504418 0.709536
vn -0.483826 0.396662 0.780110
vn -0.563807 0.349473 0.748325
vn -0.512665 0.381615 0.769120
vn -0.466607 0.467767 0.750648
vn -0.492058 0.504418 0.709536
vn -0.512665 0.381615 0.769120
vn -0.459988 0.348806 0.816545
vn -0.489225 0.221876 0.843463
vn -0.459988 0.348806 0.816545
vn -0.512665 0.381615 0.769120
vn -0.560577 0.279800 0.779400
vn -0.560577 0.279800 0.779400
vn -0.512665 0.381615 0.769120
vn -0.563807 0.349473 0.748325
vn -0.584171 0.300890 0.753797
vn 0.495389 0.350239 0.794935
vn 0.494450 0.479434 0.725026
vn 0.371966 0.460746 0.805825
vn 0.336413 0.355000 0.872239
vn 0.495389 0.350239 0.794935
vn 0.336413 0.355000 0.872239
vn 0.384757 0.259384 0.885823
vn 0.508296 0.264204 0.819653
vn 0.336413 0.355000 0.872239
vn 0.371966 0.460746 0.805825
vn 0.194987 0.396383 0.897140
vn 0.152231 0.315480 0.936642
vn 0.336413 0.355000 0.872239
vn 0.152231 0.315480 0.936642
vn 0.196266 0.263347 0.944525
vn 0.384757 0.259384 0.885823
vn -0.371966 0.460746 0.805825
vn -0.494450 0.479434 0.725026
vn -0.495389 0.350239 0.794935
vn -0.336413 0.355000 0.872239
vn -0.194987 0.396383 0.897140
vn -0.371966 0.460746 0.805825
vn -0.336413 0.355000 0.872239
vn -0.152231 0.315480 0.936642
vn -0.196266 0.263347 0.944525
vn -0.152231 0.315480 0.936642
vn -0.336413 0.355000 0.872239
vn -0.384757 0.259384 0.885823
vn -0.384757 0.259384 0.885823
vn -0.336413 0.355000 0.872239
vn -0.495389 0.350239 0.794935
vn -0.508296 0.264204 0.819653
vn 0.561468 0.330801 0.758502
vn 0.463010 0.355216 0.812061
vn 0.429075 0.443297 0.787009
vn 0.492853 0.386830 0.779396
vn 0.561468 0.330801 0.758502
vn 0.492853 0.386830 0.779396
vn 0.558816 0.278523 0.781121
vn 0.605682 0.272658 0.747534
vn 0.492853 0.386830 0.779396
vn 0.429075 0.443297 0.787009
vn 0.405842 0.465873 0.786292
vn 0.428577 0.418872 0.800542
vn 0.492853 0.386830 0.779396
vn 0.428577 0.418872 0.800542
vn 0.474394 0.288531 0.831685
vn 0.558816 0.278523 0.781121
vn -0.429075 0.443297 0.787009
vn -0.463010 0.355216 0.812061
vn -0.561468 0.330801 0.758502
vn -0.492853 0.386830 0.779396
vn -0.405842 0.465873 0.786292
vn -0.429075 0.443297 0.787009
vn -0.492853 0.386830 0.779396
vn -0.428577 0.418872 0.800542
vn -0.474394 0.288531 0.831685
vn -0.428577 0.418872 0.800542
vn -0.492853 0.386830 0.779396
vn -0.558816 0.278523 0.781121
vn -0.558816 0.278523 0.781121
vn -0.492853 0.386830 0.779396
vn -0.561468 0.330801 0.758502
vn -0.605682 0.272658 0.747534
vn 0.470949 0.347040 0.811030
vn 0.445369 0.304187 0.842091
vn 0.177683 0.302659 0.936390
vn 0.176063 0.329603 0.927558
vn 0.470949 0.347040 0.811030
vn 0.176063 0.329603 0.927558
vn 0.331681 0.338670 0.880506
vn 0.513306 0.346304 0.785233
vn 0.176063 0.329603 0.927558
vn 0.177683 0.302659 0.936390
vn -0.120736 0.251024 0.960422
vn -0.135599 0.299153 0.944521
vn 0.176063 0.329603 0.927558
vn -0.135599 0.299153 0.944521
vn -0.060215 0.304554 0.950590
vn 0.331681 0.338670 0.880506
vn -0.177683 0.302659 0.936390
vn -0.445369 0.304187 0.842091
vn -0.470949 0.347040 0.811030
vn -0.176063 0.329603 0.927558
vn 0.120736 0.251024 0.960422
vn -0.177683 0.302659 0.936390
vn -0.176063 0.329603 0.927558
vn 0.135599 0.299153 0.944521
vn 0.060215 0.304554 0.950590
vn 0.135599 0.299153 0.944521
vn -0.176063 0.329603 0.927558
vn -0.331681 0.338670 0.880506
vn -0.331681 0.338670 0.880506
vn -0.176063 0.329603 0.927558
vn -0.470949 0.347040 0.811030
vn -0.513306 0.346304 0.785233
vn 0.653231 0.012391 0.757057
vn 0.607661 0.002838 0.794192
vn 0.605015 0.192730 0.772536
vn 0.628883 0.025392 0.777085
vn 0.653231 0.012391 0.757057
vn 0.628883 0.025392 0.777085
vn 0.654880 -0.047305 0.754251
vn 0.642883 -0.009461 0.765906
vn 0.628883 0.025392 0.777085
vn 0.605015 0.192730 0.772536
vn 0.587026 0.136540 0.797971
vn 0.584437 0.039217 0.810491
vn 0.628883 0.025392 0.777085
vn 0.584437 0.039217 0.810491
vn 0.596281 -0.197336 0.778144
vn 0.654880 -0.047305 0.754251
vn -0.605015 0.192730 0.772536
vn -0.607661 0.002838 0.794192
vn -0.653231 0.012391 0.757057
vn -0.628883 0.025392 0.777085
vn -0.587026 0.136540 0.797971
vn -0.605015 0.192730 0.772536
vn -0.628883 0.025392 0.777085
vn -0.584437 0.039217 0.810491
vn -0.596281 -0.197336 0.778144
vn -0.584437 0.039217 0.810491
vn -0.628883 0.025392 0.777085
vn -0.654880 -0.047305 0.754251
vn -0.654880 -0.047305 0.754251
vn -0.628883 0.025392 0.777085
vn -0.653231 0.012391 0.757057
vn -0.642883 -0.009461 0.765906
vn 0.668045 0.098304 0.737599
vn 0.538873 0.101750 0.836219
vn 0.535616 0.239242 0.809863
vn 0.621946 0.191507 0.759281
vn 0.668045 0.098304 0.737599
vn 0.621946 0.191507 0.759281
vn 0.694306 0.041079 0.718507
vn 0.712309 0.029146 0.701261
vn 0.621946 0.191507 0.759281
vn 0.535616 0.239242 0.809863
vn 0.514700 0.280071 0.810336
vn 0.554711 0.247417 0.794406
vn 0.621946 0.191507 0.759281
vn 0.554711 0.247417 0.794406
vn 0.637979 0.093970 0.764299
vn 0.694306 0.041079 0.718507
vn -0.535616 0.239242 0.809863
vn -0.538873 0.101750 0.836219
vn -0.668045 0.098304 0.737599
vn -0.621946 0.191507 0.759281
vn -0.514700 0.280071 0.810336
vn -0.535616 0.239242 0.809863
vn -0.621946 0.191507 0.759281
vn -0.554711 0.247417 0.794406
vn -0.637979 0.093970 0.764299
vn -0.554711 0.247417 0.794406
vn -0.621946 0.191507 0.759281
vn -0.694306 0.041079 0.718507
vn -0.694306 0.041079 0.718507
vn -0.621946 0.191507 0.759281
vn -0.668045 0.098304 0.737599
vn -0.712309 0.029146 0.701261
vn 0.656373 0.126898 0.743688
vn 0.547019 0.181526 0.817202
vn 0.508394 0.312428 0.802449
vn 0.606917 0.244036 0.756372
vn 0.656373 0.126898 0.743688
vn 0.606917 0.244036 0.756372
vn 0.635651 0.063205 0.769385
vn 0.679635 0.049411 0.731884
vn 0.606917 0.244036 0.756372
vn 0.508394 0.312428 0.802449
vn 0.500274 0.371757 0.781999
vn 0.545258 0.307970 0.779646
vn 0.606917 0.244036 0.756372
vn 0.545258 0.307970 0.779646
vn 0.573330 0.065677 0.816688
vn 0.635651 0.063205 0.769385
vn -0.508394 0.312428 0.802449
vn -0.547019 0.181526 0.817202
vn -0.656373 0.126898 0.743688
vn -0.606917 0.244036 0.756372
vn -0.500274 0.371757 0.781999
vn -0.508394 0.312428 0.802449
vn -0.606917 0.244036 0.756372
vn -0.545258 0.307970 0.779646
vn -0.573330 0.065677 0.816688
vn -0.545258 0.307970 0.779646
vn -0.606917 0.244036 0.756372
vn -0.635651 0.063205 0.769385
vn -0.635651 0.063205 0.769385
vn -0.606917 0.244036 0.756372
vn -0.656373 0.126898 0.743688
vn -0.679635 0.049411 0.731884
vn 0.532107 0.391107 0.750931
vn 0.504885 0.430631 0.748096
vn 0.445221 0.442994 0.778161
vn 0.489957 0.410424 0.769087
vn 0.532107 0.391107 0.750931
vn 0.489957 0.410424 0.769087
vn 0.518393 0.348342 0.780978
vn 0.537264 0.364708 0.760484
vn 0.489957 0.410424 0.769087
vn 0.445221 0.442994 0.778161
vn 0.413193 0.462756 0.784301
vn 0.440455 0.420465 0.793227
vn 0.489957 0.410424 0.769087
vn 0.440455 0.420465 0.793227
vn 0.468595 0.338185 0.816119
vn 0.518393 0.348342 0.780978
vn -0.445221 0.442994 0.778161
vn -0.504885 0.430631 0.748096
vn -0.532107 0.391107 0.750931
vn -0.489957 0.410424 0.769087
vn -0.413193 0.462756 0.784301
vn -0.445221 0.442994 0.778161
vn -0.489957 0.410424 0.769087
vn -0.440455 0.420465 0.793227
vn -0.468595 0.338185 0.816119
vn -0.440455 0.420465 0.793227
vn -0.489957 0.410424 0.769087
vn -0.518393 0.348342 0.780978
vn -0.518393 0.348342 0.780978
vn -0.489957 0.410424 0.769087
vn -0.532107 0.391107 0.750931
vn -0.537264 0.364708 0.760484
s off
g beard05
usemtl FBXASC0481SG
f 7/175/1 11/230/2 10/9/3 8/102/4
f 7/175/5 8/102/6 4/48/7 3/121/8
f 3/121/9 4/48/10 1/214/11 2/141/12
f 8/102/13 10/9/14 12/156/15 9/83/16
f 4/48/17 8/102/18 9/83/19 5/28/20
f 4/48/21 5/28/22 6/194/23 1/214/24
f 22/218/25 23/198/26 20/71/27 19/144/28
f 24/125/29 22/218/30 19/144/31 21/52/32
f 21/52/33 19/144/34 14/64/35 18/163/36
f 17/237/37 18/163/38 14/64/39 13/137/40
f 14/64/41 19/144/42 20/71/43 15/44/44
f 13/137/45 14/64/46 15/44/47 16/210/48
f 35/166/49 36/93/50 32/234/51 31/68/52
f 34/185/53 35/166/54 31/68/55 27/13/56
f 33/19/57 34/185/58 27/13/59 26/32/60
f 25/106/61 26/32/62 27/13/63 28/179/64
f 31/68/65 32/234/66 29/160/67 30/87/68
f 31/68/69 30/87/70 28/179/71 27/13/72
f 42/55/73 48/16/74 47/90/75 43/35/76
f 41/128/77 42/55/78 43/35/79 44/201/80
f 38/240/81 44/201/82 43/35/83 39/221/84
f 37/74/85 38/240/86 39/221/87 40/147/88
f 43/35/89 47/90/90 45/182/91 39/221/92
f 39/221/93 45/182/94 46/109/95 40/147/96
f 59/58/97 60/224/98 56/169/99 55/3/100
f 58/77/101 59/58/102 55/3/103 51/188/104
f 57/150/105 58/77/106 51/188/107 50/207/108
f 49/41/109 50/207/110 51/188/111 52/115/112
f 55/3/113 56/169/114 53/96/115 54/22/116
f 51/188/117 55/3/118 54/22/119 52/115/120
f 66/231/121 72/191/122 71/25/123 67/211/124
f 65/65/125 66/231/126 67/211/127 68/138/128
f 68/138/129 67/211/130 63/112/131 62/131/132
f 61/204/133 62/131/134 63/112/135 64/38/136
f 67/211/137 71/25/138 69/118/139 63/112/140
f 63/112/141 69/118/142 70/45/143 64/38/144
f 83/235/145 84/161/146 80/61/147 79/134/148
f 82/14/149 83/235/150 79/134/151 75/80/152
f 81/88/153 82/14/154 75/80/155 74/99/156
f 73/172/157 74/99/158 75/80/159 76/6/160
f 79/134/161 80/61/162 77/227/163 78/153/164
f 75/80/165 79/134/166 78/153/167 76/6/168
f 90/122/169 96/84/170 95/157/171 91/103/172
f 89/195/173 90/122/174 91/103/175 92/29/176
f 92/29/177 91/103/178 87/49/179 86/69/180
f 85/142/181 86/69/182 87/49/183 88/215/184
f 91/103/185 95/157/186 93/10/187 87/49/188
f 87/49/189 93/10/190 94/176/191 88/215/192
f 107/126/193 108/53/194 104/238/195 103/72/196
f 106/145/197 107/126/198 103/72/199 99/17/200
f 105/219/201 106/145/202 99/17/203 98/36/204
f 97/110/205 98/36/206 99/17/207 100/183/208
f 103/72/209 104/238/210 101/164/211 102/91/212
f 99/17/213 103/72/214 102/91/215 100/183/216
f 114/59/217 120/20/218 119/94/219 115/39/220
f 113/132/221 114/59/222 115/39/223 116/205/224
f 116/205/225 115/39/226 111/180/227 110/199/228
f 109/33/229 110/199/230 111/180/231 112/107/232
f 115/39/233 119/94/234 117/186/235 111/180/236
f 111/180/237 117/186/238 118/113/239 112/107/240
f 131/62/241 132/228/242 128/129/243 127/202/244
f 130/81/245 131/62/246 127/202/247 123/148/248
f 129/154/249 130/81/250 123/148/251 122/167/252
f 121/1/253 122/167/254 123/148/255 124/75/256
f 127/202/257 128/129/258 125/56/259 126/222/260
f 123/148/261 127/202/262 126/222/263 124/75/264
f 138/189/265 144/151/266 143/225/267 139/170/268
f 137/23/269 138/189/270 139/170/271 140/97/272
f 140/97/273 139/170/274 135/116/275 134/135/276
f 133/208/277 134/135/278 135/116/279 136/42/280
f 139/170/281 143/225/282 141/78/283 135/116/284
f 135/116/285 141/78/286 142/4/287 136/42/288
f 155/192/289 156/119/290 152/66/291 151/139/292
f 154/212/293 155/192/294 151/139/295 147/85/296
f 153/46/297 154/212/298 147/85/299 146/104/300
f 145/177/301 146/104/302 147/85/303 148/11/304
f 151/139/305 152/66/306 149/232/307 150/158/308
f 147/85/309 151/139/310 150/158/311 148/11/312
f 162/127/313 168/89/314 167/162/315 163/108/316
f 161/200/317 162/127/318 163/108/319 164/34/320
f 164/34/321 163/108/322 159/7/323 158/26/324
f 157/100/325 158/26/326 159/7/327 160/173/328
f 163/108/329 167/162/330 165/15/331 159/7/332
f 159/7/333 165/15/334 166/181/335 160/173/336
f 179/130/337 180/57/338 175/30/339 174/50/340
f 177/223/341 179/130/342 174/50/343 170/236/344
f 177/223/345 170/236/346 169/70/347 178/149/348
f 173/123/349 174/50/350 175/30/351 176/196/352
f 170/236/353 174/50/354 173/123/355 171/216/356
f 169/70/357 170/236/358 171/216/359 172/143/360
f 187/239/361 192/220/362 191/54/363 188/165/364
f 187/239/365 188/165/366 185/92/367 186/18/368
f 188/165/369 191/54/370 189/146/371 184/111/372
f 185/92/373 188/165/374 184/111/375 183/184/376
f 183/184/377 184/111/378 181/37/379 182/203/380
f 181/37/381 184/111/382 189/146/383 190/73/384
f 203/21/385 204/187/386 200/133/387 199/206/388
f 202/40/389 203/21/390 199/206/391 195/152/392
f 201/114/393 202/40/394 195/152/395 194/171/396
f 193/5/397 194/171/398 195/152/399 196/79/400
f 199/206/401 200/133/402 197/60/403 198/226/404
f 195/152/405 199/206/406 198/226/407 196/79/408
f 210/193/409 216/155/410 215/229/411 211/174/412
f 209/27/413 210/193/414 211/174/415 212/101/416
f 212/101/417 211/174/418 207/76/419 206/95/420
f 205/168/421 206/95/422 207/76/423 208/2/424
f 211/174/425 215/229/426 213/82/427 207/76/428
f 207/76/429 213/82/430 214/8/431 208/2/432
f 227/197/433 228/124/434 224/24/435 223/98/436
f 226/217/437 227/197/438 223/98/439 219/43/440
f 225/51/441 226/217/442 219/43/443 218/63/444
f 217/136/445 218/63/446 219/43/447 220/209/448
f 223/98/449 224/24/450 221/190/451 222/117/452
f 219/43/453 223/98/454 222/117/455 220/209/456
f 234/86/457 240/47/458 239/120/459 235/67/460
f 233/159/461 234/86/462 235/67/463 236/233/464
f 236/233/465 235/67/466 231/12/467 230/31/468
f 229/105/469 230/31/470 231/12/471 232/178/472
f 235/67/473 239/120/474 237/213/475 231/12/476
f 231/12/477 237/213/478 238/140/479 232/178/480
f 243/242/481 248/243/482 247/241/483 244/244/484
f 243/242/485 244/244/486 241/245/487 242/246/488
f 244/244/489 247/241/490 249/247/491 246/248/492
f 244/244/493 246/248/494 245/249/495 241/245/496
f 256/250/497 257/251/498 252/252/499 251/253/500
f 258/254/501 256/250/502 251/253/503 255/255/504
f 254/256/505 255/255/506 251/253/507 250/257/508
f 250/257/509 251/253/510 252/252/511 253/258/512
f 261/260/513 266/261/514 265/259/515 262/262/516
f 261/260/517 262/262/518 259/263/519 260/264/520
f 262/262/521 265/259/522 267/265/523 264/266/524
f 262/262/525 264/266/526 263/267/527 259/263/528
f 274/268/529 275/269/530 270/270/531 269/271/532
f 276/272/533 274/268/534 269/271/535 273/273/536
f 272/274/537 273/273/538 269/271/539 268/275/540
f 268/275/541 269/271/542 270/270/543 271/276/544
f 279/278/545 284/279/546 283/277/547 280/280/548
f 279/278/549 280/280/550 277/281/551 278/282/552
f 280/280/553 283/277/554 285/283/555 282/284/556
f 280/280/557 282/284/558 281/285/559 277/281/560
f 292/286/561 293/287/562 288/288/563 287/289/564
f 294/290/565 292/286/566 287/289/567 291/291/568
f 290/292/569 291/291/570 287/289/571 286/293/572
f 286/293/573 287/289/574 288/288/575 289/294/576
f 297/296/577 302/297/578 301/295/579 298/298/580
f 297/296/581 298/298/582 295/299/583 296/300/584
f 298/298/585 301/295/586 303/301/587 300/302/588
f 298/298/589 300/302/590 299/303/591 295/299/592
f 310/304/593 311/305/594 306/306/595 305/307/596
f 312/308/597 310/304/598 305/307/599 309/309/600
f 308/310/601 309/309/602 305/307/603 304/311/604
f 304/311/605 305/307/606 306/306/607 307/312/608
f 315/314/609 320/315/610 319/313/611 316/316/612
f 315/314/613 316/316/614 313/317/615 314/318/616
f 316/316/617 319/313/618 321/319/619 318/320/620
f 316/316/621 318/320/622 317/321/623 313/317/624
f 328/322/625 329/323/626 324/324/627 323/325/628
f 330/326/629 328/322/630 323/325/631 327/327/632
f 326/328/633 327/327/634 323/325/635 322/329/636
f 322/329/637 323/325/638 324/324/639 325/330/640
f 333/332/641 338/333/642 337/331/643 334/334/644
f 333/332/645 334/334/646 331/335/647 332/336/648
f 334/334/649 337/331/650 339/337/651 336/338/652
f 334/334/653 336/338/654 335/339/655 331/335/656
f 346/340/657 347/341/658 342/342/659 341/343/660
f 348/344/661 346/340/662 341/343/663 345/345/664
f 344/346/665 345/345/666 341/343/667 340/347/668
f 340/347/669 341/343/670 342/342/671 343/348/672
f 351/350/673 356/351/674 355/349/675 352/352/676
f 351/350/677 352/352/678 349/353/679 350/354/680
f 352/352/681 355/349/682 357/355/683 354/356/684
f 352/352/685 354/356/686 353/357/687 349/353/688
f 364/358/689 365/359/690 360/360/691 359/361/692
f 366/362/693 364/358/694 359/361/695 363/363/696
f 362/364/697 363/363/698 359/361/699 358/365/700
f 358/365/701 359/361/702 360/360/703 361/366/704
f 369/368/705 374/369/706 373/367/707 370/370/708
f 369/368/709 370/370/710 367/371/711 368/372/712
f 370/370/713 373/367/714 375/373/715 372/374/716
f 370/370/717 372/374/718 371/375/719 367/371/720
f 382/376/721 383/377/722 378/378/723 377/379/724
f 384/380/725 382/376/726 377/379/727 381/381/728
f 380/382/729 381/381/730 377/379/731 376/383/732
f 376/383/733 377/379/734 378/378/735 379/384/736
f 387/386/737 392/387/738 391/385/739 388/388/740
f 387/386/741 388/388/742 385/389/743 386/390/744
f 388/388/745 391/385/746 393/391/747 390/392/748
f 388/388/749 390/392/750 389/393/751 385/389/752
f 400/394/753 401/395/754 396/396/755 395/397/756
f 402/398/757 400/394/758 395/397/759 399/399/760
f 398/400/761 399/399/762 395/397/763 394/401/764
f 394/401/765 395/397/766 396/396/767 397/402/768
f 405/404/769 410/405/770 409/403/771 406/406/772
f 405/404/773 406/406/774 403/407/775 404/408/776
f 406/406/777 409/403/778 411/409/779 408/410/780
f 406/406/781 408/410/782 407/411/783 403/407/784
f 418/412/785 419/413/786 414/414/787 413/415/788
f 420/416/789 418/412/790 413/415/791 417/417/792
f 416/418/793 417/417/794 413/415/795 412/419/796
f 412/419/797 413/415/798 414/414/799 415/420/800
f 423/422/801 428/423/802 427/421/803 424/424/804
f 423/422/805 424/424/806 421/425/807 422/426/808
f 424/424/809 427/421/810 429/427/811 426/428/812
f 424/424/813 426/428/814 425/429/815 421/425/816
f 436/430/817 437/431/818 432/432/819 431/433/820
f 438/434/821 436/430/822 431/433/823 435/435/824
f 434/436/825 435/435/826 431/433/827 430/437/828
f 430/437/829 431/433/830 432/432/831 433/438/832
f 441/440/833 446/441/834 445/439/835 442/442/836
f 441/440/837 442/442/838 439/443/839 440/444/840
f 442/442/841 445/439/842 447/445/843 444/446/844
f 442/442/845 444/446/846 443/447/847 439/443/848
f 454/448/849 455/449/850 450/450/851 449/451/852
f 456/452/853 454/448/854 449/451/855 453/453/856
f 452/454/857 453/453/858 449/451/859 448/455/860
f 448/455/861 449/451/862 450/450/863 451/456/864
f 459/458/865 464/459/866 463/457/867 460/460/868
f 459/458/869 460/460/870 457/461/871 458/462/872
f 460/460/873 463/457/874 465/463/875 462/464/876
f 460/460/877 462/464/878 461/465/879 457/461/880
f 472/466/881 473/467/882 468/468/883 467/469/884
f 474/470/885 472/466/886 467/469/887 471/471/888
f 470/472/889 471/471/890 467/469/891 466/473/892
f 466/473/893 467/469/894 468/468/895 469/474/896
f 477/476/897 482/477/898 481/475/899 478/478/900
f 477/476/901 478/478/902 475/479/903 476/480/904
f 478/478/905 481/475/906 483/481/907 480/482/908
f 478/478/909 480/482/910 479/483/911 475/479/912
f 490/484/913 491/485/914 486/486/915 485/487/916
f 492/488/917 490/484/918 485/487/919 489/489/920
f 488/490/921 489/489/922 485/487/923 484/491/924
f 484/491/925 485/487/926 486/486/927 487/492/928
f 495/494/929 500/495/930 499/493/931 496/496/932
f 495/494/933 496/496/934 493/497/935 494/498/936
f 496/496/937 499/493/938 501/499/939 498/500/940
f 496/496/941 498/500/942 497/501/943 493/497/944
f 508/502/945 509/503/946 504/504/947 503/505/948
f 510/506/949 508/502/950 503/505/951 507/507/952
f 506/508/953 507/507/954 503/505/955 502/509/956
f 502/509/957 503/505/958 504/504/959 505/510/960
f 513/512/961 518/513/962 517/511/963 514/514/964
f 513/512/965 514/514/966 511/515/967 512/516/968
f 514/514/969 517/511/970 519/517/971 516/518/972
f 514/514/973 516/518/974 515/519/975 511/515/976
f 526/520/977 527/521/978 522/522/979 521/523/980
f 528/524/981 526/520/982 521/523/983 525/525/984
f 524/526/985 525/525/986 521/523/987 520/527/988
f 520/527/989 521/523/990 522/522/991 523/528/992
f 531/530/993 536/531/994 535/529/995 532/532/996
f 531/530/997 532/532/998 529/533/999 530/534/1000
f 532/532/1001 535/529/1002 537/535/1003 534/536/1004
f 532/532/1005 534/536/1006 533/537/1007 529/533/1008
f 544/538/1009 545/539/1010 540/540/1011 539/541/1012
f 546/542/1013 544/538/1014 539/541/1015 543/543/1016
f 542/544/1017 543/543/1018 539/541/1019 538/545/1020
f 538/545/1021 539/541/1022 540/540/1023 541/546/1024
f 549/548/1025 554/549/1026 553/547/1027 550/550/1028
f 549/548/1029 550/550/1030 547/551/1031 548/552/1032
f 550/550/1033 553/547/1034 555/553/1035 552/554/1036
f 550/550/1037 552/554/1038 551/555/1039 547/551/1040
f 562/556/1041 563/557/1042 558/558/1043 557/559/1044
f 564/560/1045 562/556/1046 557/559/1047 561/561/1048
f 560/562/1049 561/561/1050 557/559/1051 556/563/1052
f 556/563/1053 557/559/1054 558/558/1055 559/564/1056
f 567/566/1057 572/567/1058 571/565/1059 568/568/1060
f 567/566/1061 568/568/1062 565/569/1063 566/570/1064
f 568/568/1065 571/565/1066 573/571/1067 570/572/1068
f 568/568/1069 570/572/1070 569/573/1071 565/569/1072
f 580/574/1073 581/575/1074 576/576/1075 575/577/1076
f 582/578/1077 580/574/1078 575/577/1079 579/579/1080
f 578/580/1081 579/579/1082 575/577/1083 574/581/1084
f 574/581/1085 575/577/1086 576/576/1087 577/582/1088
f 585/584/1089 590/585/1090 589/583/1091 586/586/1092
f 585/584/1093 586/586/1094 583/587/1095 584/588/1096
f 586/586/1097 589/583/1098 591/589/1099 588/590/1100
f 586/586/1101 588/590/1102 587/591/1103 583/587/1104
f 598/592/1105 599/593/1106 594/594/1107 593/595/1108
f 600/596/1109 598/592/1110 593/595/1111 597/597/1112
f 596/598/1113 597/597/1114 593/595/1115 592/599/1116
f 592/599/1117 593/595/1118 594/594/1119 595/600/1120
f 603/602/1121 608/603/1122 607/601/1123 604/604/1124
f 603/602/1125 604/604/1126 601/605/1127 602/606/1128
f 604/604/1129 607/601/1130 609/607/1131 606/608/1132
f 604/604/1133 606/608/1134 605/609/1135 601/605/1136
f 616/610/1137 617/611/1138 612/612/1139 611/613/1140
f 618/614/1141 616/610/1142 611/613/1143 615/615/1144
f 614/616/1145 615/615/1146 611/613/1147 610/617/1148
f 610/617/1149 611/613/1150 612/612/1151 613/618/1152
f 621/620/1153 626/621/1154 625/619/1155 622/622/1156
f 621/620/1157 622/622/1158 619/623/1159 620/624/1160
f 622/622/1161 625/619/1162 627/625/1163 624/626/1164
f 622/622/1165 624/626/1166 623/627/1167 619/623/1168
f 634/628/1169 635/629/1170 630/630/1171 629/631/1172
f 636/632/1173 634/628/1174 629/631/1175 633/633/1176
f 632/634/1177 633/633/1178 629/631/1179 628/635/1180
f 628/635/1181 629/631/1182 630/630/1183 631/636/1184
f 639/638/1185 644/639/1186 643/637/1187 640/640/1188
f 639/638/1189 640/640/1190 637/641/1191 638/642/1192
f 640/640/1193 643/637/1194 645/643/1195 642/644/1196
f 640/640/1197 642/644/1198 641/645/1199 637/641/1200
f 652/646/1201 653/647/1202 648/648/1203 647/649/1204
f 654/650/1205 652/646/1206 647/649/1207 651/651/1208
f 650/652/1209 651/651/1210 647/649/1211 646/653/1212
f 646/653/1213 647/649/1214 648/648/1215 649/654/1216
f 657/656/1217 662/657/1218 661/655/1219 658/658/1220
f 657/656/1221 658/658/1222 655/659/1223 656/660/1224
f 658/658/1225 661/655/1226 663/661/1227 660/662/1228
f 658/658/1229 660/662/1230 659/663/1231 655/659/1232
f 670/664/1233 671/665/1234 666/666/1235 665/667/1236
f 672/668/1237 670/664/1238 665/667/1239 669/669/1240
f 668/670/1241 669/669/1242 665/667/1243 664/671/1244
f 664/671/1245 665/667/1246 666/666/1247 667/672/1248
