# This file is brought to you by Roblox Corporation
# Generated by Roblox Studio

mtllib Card.mtl

g Cardmodel1

v 40.9521 0.0761 -29.6426 
v 40.9521 0.0761 -21.7786 
v 40.9521 0.000100002 -29.6426 
v 40.926 0.0761 -29.7596 
v 40.9521 0.000100002 -21.7786 
v 40.926 0.000100002 -29.7596 
v 40.8432 0.0761 -29.8674 
v 40.8432 0.000100002 -29.8674 
v 40.926 0.000100002 -21.6615 
v 40.926 0.0761 -21.6615 
v 40.8432 0.000100002 -21.5537 
v 40.8432 0.0761 -21.5537 
v 35.012 0.000100002 -29.9606 
v 34.7491 0.000100002 -29.8674 
v 34.7491 0.0761 -29.8674 
v 40.7172 0.000100002 -29.9382 
v 40.8432 0.000100002 -29.8674 
v 40.7172 0.0761 -21.4829 
v 35.012 0.000100002 -21.4606 
v 40.8432 0.0761 -21.5537 
v 34.7491 0.000100002 -21.5537 
v 40.9521 0.0761 -21.7786 
v 40.9521 0.000100002 -29.6426 
v 34.6401 0.000100002 -21.7786 
v 34.6401 0.0761 -29.6426 
v 34.7491 0.0761 -29.8674 
v 40.7172 0.0761 -29.9382 
v 34.8751 0.0761 -29.9382 
v 35.012 0.0761 -29.9606 
v 40.5803 0.0761 -29.9606 
v 40.8432 0.0761 -29.8674 
v 34.6663 0.0761 -29.7596 
v 40.926 0.0761 -29.7596 
v 40.9521 0.0761 -29.6426 
v 34.6401 0.0761 -29.6426 
v 40.9521 0.0761 -21.7786 
v 34.6401 0.0761 -21.7786 
v 40.926 0.0761 -21.6615 
v 34.6663 0.0761 -21.6615 
v 40.8432 0.0761 -21.5537 
v 34.7491 0.0761 -21.5537 
v 40.7172 0.0761 -21.4829 
v 34.8751 0.0761 -21.4829 
v 40.5803 0.0761 -21.4606 
v 35.012 0.0761 -21.4606 
v 40.5803 0.0761 -21.4606 
v 35.012 0.0761 -21.4606 
v 40.5803 0.000100002 -21.4606 
v 40.7172 0.0761 -21.4829 
v 35.012 0.000100002 -21.4606 
v 40.7172 0.000100002 -21.4829 
v 34.8751 0.000100002 -21.4829 
v 40.8432 0.0761 -21.5537 
v 40.8432 0.000100002 -21.5537 
v 34.8751 0.0761 -21.4829 
v 34.7491 0.000100002 -21.5537 
v 34.7491 0.0761 -21.5537 
v 34.6401 0.000100002 -29.6426 
v 34.6401 0.000100002 -21.7786 
v 34.6401 0.0761 -29.6426 
v 34.6663 0.000100002 -29.7596 
v 34.6401 0.0761 -21.7786 
v 34.6663 0.0761 -29.7596 
v 34.7491 0.000100002 -29.8674 
v 34.7491 0.0761 -29.8674 
v 34.6663 0.0761 -21.6615 
v 34.6663 0.000100002 -21.6615 
v 34.7491 0.0761 -21.5537 
v 34.7491 0.000100002 -21.5537 
v 35.012 0.000100002 -29.9606 
v 34.7491 0.000100002 -29.8674 
v 34.7491 0.0761 -29.8674 
v 40.7172 0.000100002 -29.9382 
v 40.8432 0.000100002 -29.8674 
v 35.012 0.0761 -21.4606 
v 40.7172 0.0761 -21.4829 
v 35.012 0.000100002 -21.4606 
v 40.7172 0.000100002 -21.4829 
v 40.8432 0.0761 -21.5537 
v 34.7491 0.000100002 -21.5537 
v 40.9521 0.0761 -21.7786 
v 40.9521 0.000100002 -29.6426 
v 34.6401 0.000100002 -21.7786 
v 34.6401 0.0761 -29.6426 
v 40.926 0.000100002 -21.6615 
v 34.6663 0.000100002 -21.6615 
v 40.9521 0.000100002 -21.7786 
v 34.7491 0.000100002 -21.5537 
v 34.6401 0.000100002 -21.7786 
v 40.8432 0.000100002 -21.5537 
v 40.9521 0.000100002 -29.6426 
v 34.8751 0.000100002 -21.4829 
v 34.6401 0.000100002 -29.6426 
v 40.7172 0.000100002 -21.4829 
v 35.012 0.000100002 -21.4606 
v 40.5803 0.000100002 -21.4606 
v 34.6663 0.000100002 -29.7596 
v 40.926 0.000100002 -29.7596 
v 40.8432 0.000100002 -29.8674 
v 34.7491 0.000100002 -29.8674 
v 40.7172 0.000100002 -29.9382 
v 34.8751 0.000100002 -29.9382 
v 35.012 0.000100002 -29.9606 
v 40.5803 0.000100002 -29.9606 
v 40.5803 0.0761 -29.9606 
v 35.012 0.000100002 -29.9606 
v 35.012 0.0761 -29.9606 
v 34.8751 0.0761 -29.9382 
v 40.5803 0.000100002 -29.9606 
v 34.8751 0.000100002 -29.9382 
v 34.7491 0.000100002 -29.8674 
v 34.7491 0.0761 -29.8674 
v 40.7172 0.000100002 -29.9382 
v 40.7172 0.0761 -29.9382 
v 40.8432 0.000100002 -29.8674 
v 40.8432 0.0761 -29.8674 

vn 0.992126 0 -0.110236 
vn 0.992126 0 0.110236 
vn 0.992126 0 -0.110236 
vn 0.905512 0 -0.425197 
vn 0.992126 0 0.110236 
vn 0.905512 0 -0.425197 
vn 0.653543 0 -0.76378 
vn 0.653543 0 -0.76378 
vn 0.905512 0 0.425197 
vn 0.905512 0 0.425197 
vn 0.653543 0 0.76378 
vn 0.653543 0 0.76378 
vn -0.0787402 0 -1 
vn -0.653543 0 -0.76378 
vn -0.653543 0 -0.76378 
vn 0.330709 0 -0.944882 
vn 0.653543 0 -0.76378 
vn 0.330709 0 0.944882 
vn -0.0787402 0 1 
vn 0.653543 0 0.76378 
vn -0.653543 0 0.76378 
vn 0.992126 0 0.110236 
vn 0.992126 0 -0.110236 
vn -0.992126 0 0.110236 
vn -0.992126 0 -0.110236 
vn 0 1 0 
vn 0 1 0 
vn 0 1 0 
vn 0 1 0 
vn 0 1 0 
vn 0 1 0 
vn 0 1 0 
vn 0 1 0 
vn 0 1 0 
vn 0 1 0 
vn 0 1 0 
vn 0 1 0 
vn 0 1 0 
vn 0 1 0 
vn 0 1 0 
vn 0 1 0 
vn 0 1 0 
vn 0 1 0 
vn 0 1 0 
vn 0 1 0 
vn 0.0787402 0 1 
vn -0.0787402 0 1 
vn 0.0787402 0 1 
vn 0.330709 0 0.944882 
vn -0.0787402 0 1 
vn 0.330709 0 0.944882 
vn -0.330709 0 0.944882 
vn 0.653543 0 0.76378 
vn 0.653543 0 0.76378 
vn -0.330709 0 0.944882 
vn -0.653543 0 0.76378 
vn -0.653543 0 0.76378 
vn -0.992126 0 -0.110236 
vn -0.992126 0 0.110236 
vn -0.992126 0 -0.110236 
vn -0.905512 0 -0.425197 
vn -0.992126 0 0.110236 
vn -0.905512 0 -0.425197 
vn -0.653543 0 -0.76378 
vn -0.653543 0 -0.76378 
vn -0.905512 0 0.425197 
vn -0.905512 0 0.425197 
vn -0.653543 0 0.76378 
vn -0.653543 0 0.76378 
vn -0.0787402 0 -1 
vn -0.653543 0 -0.76378 
vn -0.653543 0 -0.76378 
vn 0.330709 0 -0.944882 
vn 0.653543 0 -0.76378 
vn -0.0787402 0 1 
vn 0.330709 0 0.944882 
vn -0.0787402 0 1 
vn 0.330709 0 0.944882 
vn 0.653543 0 0.76378 
vn -0.653543 0 0.76378 
vn 0.992126 0 0.110236 
vn 0.992126 0 -0.110236 
vn -0.992126 0 0.110236 
vn -0.992126 0 -0.110236 
vn 0 -1 0 
vn 0 -1 0 
vn 0 -1 0 
vn 0 -1 0 
vn 0 -1 0 
vn 0 -1 0 
vn 0 -1 0 
vn 0 -1 0 
vn 0 -1 0 
vn 0 -1 0 
vn 0 -1 0 
vn 0 -1 0 
vn 0 -1 0 
vn 0 -1 0 
vn 0 -1 0 
vn 0 -1 0 
vn 0 -1 0 
vn 0 -1 0 
vn 0 -1 0 
vn 0 -1 0 
vn 0.0787402 0 -1 
vn -0.0787402 0 -1 
vn -0.0787402 0 -1 
vn -0.330709 0 -0.944882 
vn 0.0787402 0 -1 
vn -0.330709 0 -0.944882 
vn -0.653543 0 -0.76378 
vn -0.653543 0 -0.76378 
vn 0.330709 0 -0.944882 
vn 0.330709 0 -0.944882 
vn 0.653543 0 -0.76378 
vn 0.653543 0 -0.76378 

vt 40.4915 1.00475 
vt 39.5085 1.00475 
vt 40.4915 0.99525 
vt 40.5061 1.00475 
vt 39.5085 0.99525 
vt 40.5061 0.99525 
vt 40.5196 1.00475 
vt 40.5196 0.99525 
vt 39.4939 0.99525 
vt 39.4939 1.00475 
vt 39.4804 0.99525 
vt 39.4804 1.00475 
vt 40.348 0.46875 
vt 40.3809 0.480393 
vt 40.3809 0.480393 
vt 39.6349 0.471541 
vt 39.6191 0.480393 
vt 39.6349 1.52846 
vt 40.348 1.53125 
vt 39.6191 1.51961 
vt 40.3809 1.51961 
vt 39.6055 1.4915 
vt 39.6055 0.5085 
vt 40.3945 1.4915 
vt 40.3945 0.5085 
vt 40.3809 0.480393 
vt 39.6349 0.471541 
vt 40.3651 0.471541 
vt 40.348 0.46875 
vt 39.652 0.46875 
vt 39.6191 0.480393 
vt 40.3912 0.493868 
vt 39.6088 0.493868 
vt 39.6055 0.5085 
vt 40.3945 0.5085 
vt 39.6055 1.4915 
vt 40.3945 1.4915 
vt 39.6088 1.50613 
vt 40.3912 1.50613 
vt 39.6191 1.51961 
vt 40.3809 1.51961 
vt 39.6349 1.52846 
vt 40.3651 1.52846 
vt 39.652 1.53125 
vt 40.348 1.53125 
vt 40.348 1.00475 
vt 39.652 1.00475 
vt 40.348 0.99525 
vt 40.3651 1.00475 
vt 39.652 0.99525 
vt 40.3651 0.99525 
vt 39.6349 0.99525 
vt 40.3809 1.00475 
vt 40.3809 0.99525 
vt 39.6349 1.00475 
vt 39.6191 0.99525 
vt 39.6191 1.00475 
vt 39.5085 0.99525 
vt 40.4915 0.99525 
vt 39.5085 1.00475 
vt 39.4939 0.99525 
vt 40.4915 1.00475 
vt 39.4939 1.00475 
vt 39.4804 0.99525 
vt 39.4804 1.00475 
vt 40.5061 1.00475 
vt 40.5061 0.99525 
vt 40.5196 1.00475 
vt 40.5196 0.99525 
vt 39.652 0.46875 
vt 39.6191 0.480393 
vt 39.6191 0.480393 
vt 40.3651 0.471541 
vt 40.3809 0.480393 
vt 39.652 1.53125 
vt 40.3651 1.52846 
vt 39.652 1.53125 
vt 40.3651 1.52846 
vt 40.3809 1.51961 
vt 39.6191 1.51961 
vt 40.3945 1.4915 
vt 40.3945 0.5085 
vt 39.6055 1.4915 
vt 39.6055 0.5085 
vt 40.3912 1.50613 
vt 39.6088 1.50613 
vt 40.3945 1.4915 
vt 39.6191 1.51961 
vt 39.6055 1.4915 
vt 40.3809 1.51961 
vt 40.3945 0.5085 
vt 39.6349 1.52846 
vt 39.6055 0.5085 
vt 40.3651 1.52846 
vt 39.652 1.53125 
vt 40.348 1.53125 
vt 39.6088 0.493868 
vt 40.3912 0.493868 
vt 40.3809 0.480393 
vt 39.6191 0.480393 
vt 40.3651 0.471541 
vt 39.6349 0.471541 
vt 39.652 0.46875 
vt 40.348 0.46875 
vt 39.652 1.00475 
vt 40.348 0.99525 
vt 40.348 1.00475 
vt 40.3651 1.00475 
vt 39.652 0.99525 
vt 40.3651 0.99525 
vt 40.3809 0.99525 
vt 40.3809 1.00475 
vt 39.6349 0.99525 
vt 39.6349 1.00475 
vt 39.6191 0.99525 
vt 39.6191 1.00475 

usemtl Cardmodel1Mtl

f 1/1/1 2/2/2 3/3/3 
f 4/4/4 1/1/1 3/3/3 
f 3/3/3 2/2/2 5/5/5 
f 6/6/6 4/4/4 3/3/3 
f 7/7/7 4/4/4 6/6/6 
f 8/8/8 7/7/7 6/6/6 
f 5/5/5 2/2/2 9/9/9 
f 2/2/2 10/10/10 9/9/9 
f 9/9/9 10/10/10 11/11/11 
f 10/10/10 12/12/12 11/11/11 
f 26/26/26 27/27/27 28/28/28 
f 27/27/27 29/29/29 28/28/28 
f 29/29/29 27/27/27 30/30/30 
f 27/27/27 26/26/26 31/31/31 
f 32/32/32 31/31/31 26/26/26 
f 31/31/31 32/32/32 33/33/33 
f 33/33/33 32/32/32 34/34/34 
f 35/35/35 34/34/34 32/32/32 
f 34/34/34 35/35/35 36/36/36 
f 35/35/35 37/37/37 36/36/36 
f 36/36/36 37/37/37 38/38/38 
f 39/39/39 38/38/38 37/37/37 
f 38/38/38 39/39/39 40/40/40 
f 40/40/40 39/39/39 41/41/41 
f 40/40/40 41/41/41 42/42/42 
f 42/42/42 41/41/41 43/43/43 
f 43/43/43 44/44/44 42/42/42 
f 44/44/44 43/43/43 45/45/45 
f 46/46/46 47/47/47 48/48/48 
f 48/48/48 49/49/49 46/46/46 
f 50/50/50 48/48/48 47/47/47 
f 48/48/48 51/51/51 49/49/49 
f 52/52/52 50/50/50 47/47/47 
f 51/51/51 53/53/53 49/49/49 
f 51/51/51 54/54/54 53/53/53 
f 52/52/52 47/47/47 55/55/55 
f 56/56/56 52/52/52 55/55/55 
f 56/56/56 55/55/55 57/57/57 
f 58/58/58 59/59/59 60/60/60 
f 60/60/60 61/61/61 58/58/58 
f 60/60/60 59/59/59 62/62/62 
f 61/61/61 60/60/60 63/63/63 
f 63/63/63 64/64/64 61/61/61 
f 64/64/64 63/63/63 65/65/65 
f 59/59/59 66/66/66 62/62/62 
f 66/66/66 59/59/59 67/67/67 
f 67/67/67 68/68/68 66/66/66 
f 68/68/68 67/67/67 69/69/69 
f 85/85/85 86/86/86 87/87/87 
f 86/86/86 85/85/85 88/88/88 
f 89/89/89 87/87/87 86/86/86 
f 88/88/88 85/85/85 90/90/90 
f 91/91/91 87/87/87 89/89/89 
f 88/88/88 90/90/90 92/92/92 
f 93/93/93 91/91/91 89/89/89 
f 92/92/92 90/90/90 94/94/94 
f 94/94/94 95/95/95 92/92/92 
f 95/95/95 94/94/94 96/96/96 
f 97/97/97 91/91/91 93/93/93 
f 91/91/91 97/97/97 98/98/98 
f 97/97/97 99/99/99 98/98/98 
f 99/99/99 97/97/97 100/100/100 
f 99/99/99 100/100/100 101/101/101 
f 101/101/101 100/100/100 102/102/102 
f 103/103/103 101/101/101 102/102/102 
f 101/101/101 103/103/103 104/104/104 
f 105/105/105 106/106/106 107/107/107 
f 107/107/107 106/106/106 108/108/108 
f 106/106/106 105/105/105 109/109/109 
f 108/108/108 106/106/106 110/110/110 
f 111/111/111 108/108/108 110/110/110 
f 108/108/108 111/111/111 112/112/112 
f 105/105/105 113/113/113 109/109/109 
f 114/114/114 113/113/113 105/105/105 
f 114/114/114 115/115/115 113/113/113 
f 115/115/115 114/114/114 116/116/116 

g Cardmodel2

v 35.0104 0.000100002 -29.9806 
v 34.736 0.000100002 -29.8827 
v 34.736 0.0761 -29.8827 
v 40.7238 0.000100002 -29.9571 
v 40.8563 0.000100002 -29.8827 
v 35.0104 0.0761 -21.4406 
v 40.7238 0.0761 -21.464 
v 35.0104 0.000100002 -21.4406 
v 40.7238 0.000100002 -21.464 
v 40.8563 0.0761 -21.5384 
v 34.736 0.000100002 -21.5384 
v 40.972 0.0761 -21.7764 
v 40.972 0.000100002 -29.6448 
v 34.6203 0.000100002 -21.7764 
v 34.6203 0.0761 -29.6448 
v 40.926 -0.0199 -21.6615 
v 34.6663 -0.0199 -21.6615 
v 40.9521 -0.0199 -21.7786 
v 34.7491 -0.0199 -21.5537 
v 34.6401 -0.0199 -21.7786 
v 40.8432 -0.0199 -21.5537 
v 40.9521 -0.0199 -29.6426 
v 34.8751 -0.0199 -21.4829 
v 34.6401 -0.0199 -29.6426 
v 40.7172 -0.0199 -21.4829 
v 35.012 -0.0199 -21.4606 
v 40.5803 -0.0199 -21.4606 
v 34.6663 -0.0199 -29.7596 
v 40.926 -0.0199 -29.7596 
v 40.8432 -0.0199 -29.8674 
v 34.7491 -0.0199 -29.8674 
v 40.7172 -0.0199 -29.9382 
v 34.8751 -0.0199 -29.9382 
v 35.012 -0.0199 -29.9606 
v 40.5803 -0.0199 -29.9606 

vn -0.0787402 0 -1 
vn -0.653543 0 -0.76378 
vn -0.653543 0 -0.76378 
vn 0.330709 0 -0.944882 
vn 0.653543 0 -0.76378 
vn -0.0787402 0 1 
vn 0.330709 0 0.944882 
vn -0.0787402 0 1 
vn 0.330709 0 0.944882 
vn 0.653543 0 0.76378 
vn -0.653543 0 0.76378 
vn 0.992126 0 0.110236 
vn 0.992126 0 -0.110236 
vn -0.992126 0 0.110236 
vn -0.992126 0 -0.110236 
vn 0 -1 0 
vn 0 -1 0 
vn 0 -1 0 
vn 0 -1 0 
vn 0 -1 0 
vn 0 -1 0 
vn 0 -1 0 
vn 0 -1 0 
vn 0 -1 0 
vn 0 -1 0 
vn 0 -1 0 
vn 0 -1 0 
vn 0 -1 0 
vn 0 -1 0 
vn 0 -1 0 
vn 0 -1 0 
vn 0 -1 0 
vn 0 -1 0 
vn 0 -1 0 
vn 0 -1 0 

vt 0.0589162 0 
vt 0.0172561 0.0109577 
vt 0.0172561 0.0109577 
vt 0.962771 0.00262678 
vt 0.982744 0.0109577 
vt 0.0589162 1 
vt 0.962771 0.997373 
vt 0.0589162 1 
vt 0.962771 0.997373 
vt 0.982744 0.989042 
vt 0.0172561 0.989042 
vt 1 0.962588 
vt 1 0.0374118 
vt 0 0.962588 
vt 0 0.0374118 
vt 0.995863 0.976359 
vt 0.00413659 0.976359 
vt 1 0.962588 
vt 0.0172561 0.989042 
vt 0 0.962588 
vt 0.982744 0.989042 
vt 1 0.0374118 
vt 0.0372294 0.997373 
vt 0 0.0374118 
vt 0.962771 0.997373 
vt 0.0589162 1 
vt 0.941084 1 
vt 0.00413659 0.0236407 
vt 0.995863 0.0236407 
vt 0.982744 0.0109577 
vt 0.0172561 0.0109577 
vt 0.962771 0.00262678 
vt 0.0372294 0.00262678 
vt 0.0589162 0 
vt 0.941084 0 

usemtl Cardmodel2Mtl

f 132/132/132 133/133/133 134/134/134 
f 133/133/133 132/132/132 135/135/135 
f 136/136/136 134/134/134 133/133/133 
f 135/135/135 132/132/132 137/137/137 
f 138/138/138 134/134/134 136/136/136 
f 135/135/135 137/137/137 139/139/139 
f 140/140/140 138/138/138 136/136/136 
f 139/139/139 137/137/137 141/141/141 
f 141/141/141 142/142/142 139/139/139 
f 142/142/142 141/141/141 143/143/143 
f 144/144/144 138/138/138 140/140/140 
f 138/138/138 144/144/144 145/145/145 
f 144/144/144 146/146/146 145/145/145 
f 146/146/146 144/144/144 147/147/147 
f 146/146/146 147/147/147 148/148/148 
f 148/148/148 147/147/147 149/149/149 
f 150/150/150 148/148/148 149/149/149 
f 148/148/148 150/150/150 151/151/151 

g Cardmodel3

v 35.0104 0.000100002 -29.9806 
v 34.736 0.000100002 -29.8827 
v 34.736 0.0761 -29.8827 
v 40.7238 0.000100002 -29.9571 
v 40.8563 0.000100002 -29.8827 
v 40.7238 0.0761 -21.464 
v 35.0104 0.000100002 -21.4406 
v 40.8563 0.0761 -21.5384 
v 34.736 0.000100002 -21.5384 
v 40.972 0.0761 -21.7764 
v 40.972 0.000100002 -29.6448 
v 34.6203 0.000100002 -21.7764 
v 34.6203 0.0761 -29.6448 
v 34.7491 0.0961 -29.8674 
v 40.7172 0.0961 -29.9382 
v 34.8751 0.0961 -29.9382 
v 35.012 0.0961 -29.9606 
v 40.5803 0.0961 -29.9606 
v 40.8432 0.0961 -29.8674 
v 34.6663 0.0961 -29.7596 
v 40.926 0.0961 -29.7596 
v 40.9521 0.0961 -29.6426 
v 34.6401 0.0961 -29.6426 
v 40.9521 0.0961 -21.7786 
v 34.6401 0.0961 -21.7786 
v 40.926 0.0961 -21.6615 
v 34.6663 0.0961 -21.6615 
v 40.8432 0.0961 -21.5537 
v 34.7491 0.0961 -21.5537 
v 40.7172 0.0961 -21.4829 
v 34.8751 0.0961 -21.4829 
v 40.5803 0.0961 -21.4606 
v 35.012 0.0961 -21.4606 

vn -0.0787402 0 -1 
vn -0.653543 0 -0.76378 
vn -0.653543 0 -0.76378 
vn 0.330709 0 -0.944882 
vn 0.653543 0 -0.76378 
vn 0.330709 0 0.944882 
vn -0.0787402 0 1 
vn 0.653543 0 0.76378 
vn -0.653543 0 0.76378 
vn 0.992126 0 0.110236 
vn 0.992126 0 -0.110236 
vn -0.992126 0 0.110236 
vn -0.992126 0 -0.110236 
vn 0 1 0 
vn 0 1 0 
vn 0 1 0 
vn 0 1 0 
vn 0 1 0 
vn 0 1 0 
vn 0 1 0 
vn 0 1 0 
vn 0 1 0 
vn 0 1 0 
vn 0 1 0 
vn 0 1 0 
vn 0 1 0 
vn 0 1 0 
vn 0 1 0 
vn 0 1 0 
vn 0 1 0 
vn 0 1 0 
vn 0 1 0 
vn 0 1 0 

vt 0.941084 0 
vt 0.982744 0.0109577 
vt 0.982744 0.0109577 
vt 0.0372294 0.00262678 
vt 0.0172561 0.0109577 
vt 0.0372294 0.997373 
vt 0.941084 1 
vt 0.0172561 0.989042 
vt 0.982744 0.989042 
vt 0 0.962588 
vt 0 0.0374118 
vt 1 0.962588 
vt 1 0.0374118 
vt 0.982744 0.0109577 
vt 0.0372294 0.00262678 
vt 0.962771 0.00262678 
vt 0.941084 0 
vt 0.0589162 0 
vt 0.0172561 0.0109577 
vt 0.995863 0.0236407 
vt 0.00413659 0.0236407 
vt 0 0.0374118 
vt 1 0.0374118 
vt 0 0.962588 
vt 1 0.962588 
vt 0.00413659 0.976359 
vt 0.995863 0.976359 
vt 0.0172561 0.989042 
vt 0.982744 0.989042 
vt 0.0372294 0.997373 
vt 0.962771 0.997373 
vt 0.0589162 1 
vt 0.941084 1 

usemtl Cardmodel3Mtl

f 165/165/165 166/166/166 167/167/167 
f 166/166/166 168/168/168 167/167/167 
f 168/168/168 166/166/166 169/169/169 
f 166/166/166 165/165/165 170/170/170 
f 171/171/171 170/170/170 165/165/165 
f 170/170/170 171/171/171 172/172/172 
f 172/172/172 171/171/171 173/173/173 
f 174/174/174 173/173/173 171/171/171 
f 173/173/173 174/174/174 175/175/175 
f 174/174/174 176/176/176 175/175/175 
f 175/175/175 176/176/176 177/177/177 
f 178/178/178 177/177/177 176/176/176 
f 177/177/177 178/178/178 179/179/179 
f 179/179/179 178/178/178 180/180/180 
f 179/179/179 180/180/180 181/181/181 
f 181/181/181 180/180/180 182/182/182 
f 182/182/182 183/183/183 181/181/181 
f 183/183/183 182/182/182 184/184/184 

